<?xml version="1.0" standalone="no"?>
<!DOCTYPE svg PUBLIC "-//W3C//DTD SVG 20010904//EN"
 "http://www.w3.org/TR/2001/REC-SVG-20010904/DTD/svg10.dtd">
<svg version="1.0" xmlns="http://www.w3.org/2000/svg"
 width="648.000000pt" height="301.000000pt" viewBox="0 0 648.000000 301.000000"
 preserveAspectRatio="xMidYMid meet">

<g transform="translate(0.000000,301.000000) scale(0.100000,-0.100000)"
fill="#000000" stroke="none">
<path d="M3028 2431 c-12 -4 -15 -10 -8 -21 7 -11 12 -12 21 -3 16 16 8 32
-13 24z"/>
<path d="M3107 2163 c-13 -13 -7 -32 8 -27 8 4 15 12 15 20 0 15 -12 19 -23 7z"/>
<path d="M2526 2065 c-3 -9 0 -15 9 -15 8 0 15 7 15 15 0 8 -4 15 -9 15 -5 0
-11 -7 -15 -15z"/>
<path d="M2785 1971 c-3 -5 -1 -12 5 -16 12 -7 30 2 30 16 0 12 -27 12 -35 0z"/>
<path d="M2835 1877 c-59 -127 -54 -237 15 -349 l20 -33 -6 35 c-3 19 -13 56
-21 83 -21 67 -10 220 19 254 6 8 8 16 5 20 -4 3 -2 12 4 19 7 8 7 14 -1 19
-6 4 -21 -16 -35 -48z"/>
<path d="M3450 1891 c7 -13 18 -58 25 -99 14 -80 9 -142 -18 -217 -18 -51 -12
-74 12 -43 70 90 65 291 -8 361 l-23 22 12 -24z"/>
<path d="M3496 1464 c-9 -23 -8 -24 14 -24 11 0 20 6 20 14 0 20 -27 28 -34
10z"/>
<path d="M3760 1364 c0 -9 5 -14 12 -12 18 6 21 28 4 28 -9 0 -16 -7 -16 -16z"/>
<path d="M3187 1283 c-12 -11 -8 -23 8 -23 8 0 15 7 15 15 0 16 -12 20 -23 8z"/>
<path d="M3270 1020 c-12 -7 -12 -12 -2 -22 14 -14 35 1 24 19 -5 8 -13 9 -22
3z"/>
<path d="M4649 578 c-4 -20 -13 -43 -59 -147 -51 -118 -43 -128 14 -16 30 61
55 104 55 97 1 -7 5 -11 10 -8 5 3 12 -10 15 -29 6 -33 45 -130 67 -168 13
-24 5 -32 -34 -33 -178 -5 -222 -21 -66 -23 55 -1 106 -4 113 -7 7 -3 25 -32
39 -65 23 -52 47 -78 47 -48 0 12 -68 179 -79 194 -4 6 -23 48 -41 95 -34 85
-79 172 -81 158z"/>
<path d="M1580 561 c0 -10 48 -21 91 -21 l29 0 2 -207 c4 -279 22 -280 26 -2
2 204 3 207 25 213 12 3 37 6 55 6 20 0 31 4 27 10 -8 12 -255 14 -255 1z"/>
<path d="M4526 261 c-23 -43 -20 -52 5 -12 11 18 18 35 15 38 -2 3 -12 -9 -20
-26z"/>
</g>
</svg>
