<?xml version="1.0" standalone="no"?>
<!DOCTYPE svg PUBLIC "-//W3C//DTD SVG 20010904//EN"
 "http://www.w3.org/TR/2001/REC-SVG-20010904/DTD/svg10.dtd">
<svg version="1.0" xmlns="http://www.w3.org/2000/svg"
 width="1280.000000pt" height="1280.000000pt" viewBox="0 0 1280.000000 1280.000000"
 preserveAspectRatio="xMidYMid meet">
<metadata>
Created by potrace 1.15, written by Peter Selinger 2001-2017
</metadata>
<g transform="translate(0.000000,1280.000000) scale(0.100000,-0.100000)"
fill="#000" stroke="none">
<path d="M6095 12794 c-27 -2 -115 -8 -195 -14 -1119 -82 -2244 -485 -3165
-1133 -1976 -1390 -2999 -3731 -2675 -6122 204 -1510 963 -2920 2116 -3932
1413 -1239 3269 -1791 5134 -1528 1221 173 2375 705 3312 1527 1758 1542 2534
3921 2024 6206 -368 1645 -1387 3097 -2806 3999 -879 558 -1822 879 -2875 979
-150 14 -756 27 -870 18z m881 -348 c1419 -148 2667 -727 3662 -1700 935 -915
1531 -2053 1752 -3345 102 -599 106 -1345 10 -1936 -230 -1424 -908 -2663
-1981 -3617 -868 -773 -1981 -1289 -3144 -1457 -335 -48 -452 -56 -875 -56
-423 0 -540 8 -875 56 -2141 310 -3958 1743 -4767 3759 -164 410 -282 842
-358 1315 -79 484 -91 1089 -34 1615 208 1919 1346 3639 3046 4607 748 425
1630 697 2473 762 77 6 156 13 175 15 92 10 775 -3 916 -18z"/>
<path d="M5995 12359 c-1050 -73 -2033 -408 -2909 -991 -1460 -973 -2426
-2555 -2620 -4293 -49 -441 -49 -909 -1 -1345 136 -1208 620 -2308 1429 -3250
116 -135 451 -470 586 -586 863 -742 1856 -1208 2960 -1389 348 -57 522 -69
960 -69 438 0 612 12 960 69 850 140 1643 452 2355 928 1232 822 2122 2084
2479 3515 171 686 219 1415 140 2127 -249 2230 -1747 4140 -3864 4928 -533
198 -1087 316 -1680 357 -165 11 -630 11 -795 -1z m735 -159 c648 -40 1227
-168 1819 -403 887 -351 1696 -939 2314 -1681 1118 -1342 1571 -3113 1236
-4836 -264 -1355 -1011 -2578 -2104 -3442 -1179 -932 -2692 -1372 -4180 -1218
-944 98 -1838 417 -2620 935 -1296 859 -2198 2207 -2494 3725 -190 978 -128
1992 180 2930 654 1991 2343 3488 4389 3889 478 94 993 129 1460 101z"/>
<path d="M6220 12129 c-173 -5 -349 -13 -391 -18 -170 -19 -298 -123 -299
-241 0 -19 56 -273 124 -564 120 -509 126 -530 157 -562 43 -45 105 -64 204
-64 l82 0 6 -77 c3 -43 8 -85 12 -95 5 -13 -4 -18 -48 -28 -69 -16 -122 -6
-142 24 -20 31 -10 54 31 71 25 10 34 20 34 37 0 47 -44 62 -99 34 -41 -22
-65 -64 -65 -116 0 -119 131 -180 283 -131 60 18 65 19 89 3 36 -24 120 -22
157 4 27 18 34 19 70 8 68 -21 174 -17 219 9 76 43 103 113 70 182 -33 71
-129 102 -153 49 -10 -22 -9 -30 5 -45 9 -11 25 -19 35 -19 10 0 23 -9 29 -21
15 -27 -10 -66 -46 -75 -31 -8 -134 2 -144 13 -3 4 -5 47 -2 94 l4 87 82 4
c69 4 92 9 137 35 30 17 62 44 72 60 11 20 50 217 112 573 109 624 108 591 21
676 -67 65 -140 94 -251 99 -44 2 -222 -1 -395 -6z m462 -89 c80 -24 152 -84
169 -138 9 -32 -1 -103 -71 -517 -45 -264 -88 -493 -95 -510 -16 -39 -51 -70
-100 -91 -31 -13 -96 -19 -290 -26 -137 -5 -274 -7 -303 -4 -67 6 -134 45
-155 88 -18 40 -41 137 -34 144 2 3 8 -12 12 -32 10 -57 45 -123 73 -142 23
-15 59 -17 292 -17 285 1 421 13 453 42 10 10 25 30 33 45 7 14 41 187 74 385
34 197 70 406 80 465 21 124 16 159 -32 214 -17 19 -54 47 -82 61 -67 35 -138
38 -546 25 -354 -12 -387 -18 -470 -89 -48 -41 -70 -84 -71 -140 l-1 -38 -8
33 c-22 95 66 193 209 232 40 11 370 25 672 28 102 2 140 -2 191 -18z m-65
-75 c28 -8 63 -25 78 -37 28 -22 28 -23 7 -28 -12 -3 -43 -32 -69 -65 -55 -68
-145 -133 -230 -165 -120 -45 -295 -35 -411 24 -63 32 -143 97 -173 140 -18
27 -32 36 -59 38 l-35 3 49 32 c68 45 117 53 401 62 380 12 388 12 442 -4z
m84 -575 c-56 -327 -73 -407 -88 -418 -19 -14 -149 -82 -157 -82 -3 0 6 21 19
48 28 54 41 124 31 176 -6 32 -10 36 -38 36 l-31 0 7 -48 c8 -62 -15 -141 -54
-186 -17 -18 -30 -38 -30 -44 0 -11 -107 -29 -116 -19 -3 2 7 22 21 42 36 53
55 127 55 209 0 86 -5 95 -45 85 l-30 -8 0 -83 c-1 -70 -5 -91 -27 -133 -15
-27 -38 -63 -53 -78 -23 -24 -31 -27 -63 -21 -20 4 -39 8 -40 10 -2 1 12 35
32 76 20 40 41 100 47 133 10 55 7 174 -5 194 -3 5 -23 4 -43 -2 l-38 -10 0
-96 c0 -88 -3 -102 -34 -169 -19 -39 -40 -77 -47 -83 -20 -16 -100 34 -109 69
-29 114 -175 767 -175 781 0 12 27 -9 83 -63 130 -129 275 -190 452 -190 182
0 323 61 455 194 47 48 86 86 88 85 1 -1 -29 -183 -67 -405z m-1074 348 c-3
-8 -6 -5 -6 6 -1 11 2 17 5 13 3 -3 4 -12 1 -19z m10 -50 c-3 -8 -6 -5 -6 6
-1 11 2 17 5 13 3 -3 4 -12 1 -19z m30 -120 c-3 -8 -6 -5 -6 6 -1 11 2 17 5
13 3 -3 4 -12 1 -19z m10 -50 c-3 -8 -6 -5 -6 6 -1 11 2 17 5 13 3 -3 4 -12 1
-19z m10 -40 c-3 -8 -6 -5 -6 6 -1 11 2 17 5 13 3 -3 4 -12 1 -19z m10 -40
c-3 -8 -6 -5 -6 6 -1 11 2 17 5 13 3 -3 4 -12 1 -19z m10 -50 c-3 -7 -5 -2 -5
12 0 14 2 19 5 13 2 -7 2 -19 0 -25z m10 -40 c-3 -8 -6 -5 -6 6 -1 11 2 17 5
13 3 -3 4 -12 1 -19z m10 -40 c-3 -8 -6 -5 -6 6 -1 11 2 17 5 13 3 -3 4 -12 1
-19z m32 -128 c0 -8 -7 8 -15 35 -7 28 -13 57 -13 65 0 8 7 -7 15 -35 7 -27
13 -57 13 -65z m8 -42 c-3 -8 -6 -5 -6 6 -1 11 2 17 5 13 3 -3 4 -12 1 -19z
m32 -128 c0 -8 -7 8 -15 35 -7 28 -13 57 -13 65 0 8 7 -7 15 -35 7 -27 13 -57
13 -65z m551 -389 c0 -75 -16 -118 -49 -135 -57 -29 -100 22 -109 131 l-5 62
74 3 c41 2 77 2 82 0 4 -2 7 -29 7 -61z"/>
<path d="M6521 11514 c-26 -33 -27 -65 -3 -95 41 -50 122 -15 122 52 0 65 -80
93 -119 43z"/>
<path d="M5850 11510 c-24 -24 -26 -67 -4 -98 20 -29 76 -30 104 -2 43 43 11
120 -50 120 -17 0 -39 -9 -50 -20z"/>
<path d="M6094 11458 c-69 -33 -37 -138 42 -138 24 0 64 47 64 75 0 30 -41 75
-67 74 -10 0 -28 -5 -39 -11z"/>
<path d="M6316 11449 c-52 -41 -23 -122 44 -122 67 0 96 81 44 122 -15 12 -34
21 -44 21 -10 0 -29 -9 -44 -21z"/>
<path d="M7509 11976 c-125 -44 -151 -90 -173 -291 -8 -82 -34 -316 -56 -520
-22 -203 -40 -388 -40 -411 0 -86 89 -169 218 -203 23 -7 42 -15 42 -19 0 -4
-7 -29 -15 -56 -8 -27 -15 -64 -15 -83 0 -32 -2 -33 -38 -33 -76 0 -152 40
-152 80 0 24 32 50 62 50 61 0 59 72 -1 85 -67 15 -151 -54 -151 -123 0 -104
82 -170 223 -180 75 -5 81 -7 111 -40 25 -26 42 -35 77 -39 26 -3 55 0 66 5
17 9 28 6 62 -19 52 -39 130 -69 178 -69 45 0 116 33 136 63 43 65 19 162 -47
194 -34 16 -37 16 -56 -2 -27 -24 -25 -51 4 -70 44 -29 44 -64 0 -84 -14 -6
-33 -11 -43 -11 -22 0 -143 60 -138 69 21 38 67 143 67 152 0 7 9 9 23 5 91
-26 135 -36 160 -36 43 0 101 20 130 44 32 26 552 963 561 1008 16 85 -65 213
-171 270 -26 15 -227 83 -445 152 -361 114 -405 126 -470 126 -40 -1 -89 -7
-109 -14z m385 -127 c591 -188 560 -177 633 -235 55 -45 98 -131 90 -180 -6
-34 -435 -826 -484 -892 -33 -45 -78 -65 -143 -65 -42 -1 -112 18 -295 77
-132 43 -261 89 -287 103 -63 34 -98 86 -98 144 0 24 24 257 54 517 57 508 54
497 118 545 41 31 116 47 187 42 38 -3 130 -25 225 -56z m-220 -1365 c32 -10
61 -24 63 -32 8 -20 -28 -104 -58 -134 -54 -55 -119 -26 -119 52 0 52 29 143
43 137 7 -2 38 -13 71 -23z"/>
<path d="M7578 11877 c-65 -19 -122 -59 -140 -99 -10 -21 -34 -201 -67 -493
-61 -551 -62 -543 30 -587 144 -69 510 -186 609 -195 50 -4 58 -2 87 24 21 18
113 173 263 442 216 390 230 418 230 466 0 84 -59 160 -165 213 -70 35 -688
231 -745 237 -32 3 -75 -1 -102 -8z m457 -163 c165 -52 317 -102 338 -111 79
-34 157 -148 144 -211 -7 -34 -402 -744 -419 -753 -7 -4 -55 -12 -105 -19
-208 -27 -408 46 -559 202 l-52 53 49 410 c34 291 53 419 65 442 11 21 35 42
67 58 90 44 130 38 472 -71z"/>
<path d="M7641 11749 c-36 -49 -54 -102 -49 -144 3 -28 8 -31 133 -71 71 -23
130 -45 132 -50 3 -8 -156 -450 -252 -701 l-23 -63 27 0 c37 0 126 -27 183
-56 l47 -24 15 53 c8 28 56 201 106 382 50 182 93 335 95 342 3 8 43 -1 134
-32 103 -34 132 -41 141 -31 14 18 46 113 54 162 l7 40 -348 113 c-191 63
-353 116 -360 118 -6 3 -26 -14 -42 -38z m389 -112 l305 -102 -3 -30 c-4 -43
-21 -92 -35 -104 -9 -7 -104 20 -331 94 -175 57 -320 106 -322 108 -9 8 56
137 68 136 7 0 150 -46 318 -102z"/>
<path d="M4830 11921 c-254 -86 -732 -257 -760 -271 -57 -29 -119 -89 -150
-144 -24 -41 -30 -63 -30 -111 l0 -60 278 -467 c153 -256 286 -476 296 -487
50 -55 153 -63 271 -22 32 12 60 21 61 21 2 0 8 -17 14 -37 7 -21 23 -58 36
-82 28 -51 24 -59 -40 -90 -68 -33 -123 -25 -139 21 -4 12 4 27 24 46 34 32
34 58 -1 80 -48 30 -129 -70 -116 -142 25 -130 195 -155 334 -49 29 22 41 25
79 19 55 -7 103 11 133 52 20 26 29 30 93 35 40 3 91 13 114 22 80 32 131 118
112 188 -18 67 -95 110 -164 93 -23 -6 -26 -11 -23 -44 3 -34 6 -37 38 -40 43
-4 60 -18 60 -46 0 -44 -76 -86 -156 -86 -30 0 -32 2 -38 49 -4 28 -13 66 -21
86 -17 40 -23 35 78 71 61 22 130 83 151 133 15 38 13 60 -60 583 -41 299 -77
551 -80 561 -10 31 -65 87 -108 109 -58 31 -209 36 -286 9z m244 -91 c85 -40
81 -28 157 -559 38 -262 68 -491 69 -509 0 -45 -33 -105 -74 -137 -20 -16
-143 -65 -288 -117 -283 -101 -341 -111 -408 -73 -35 20 -44 36 -465 738 -9
15 -14 27 -12 27 3 0 98 -154 212 -342 208 -344 263 -418 308 -418 63 0 444
127 605 201 132 61 128 21 47 579 -73 503 -81 536 -143 577 -45 29 -131 46
-194 38 -50 -7 -672 -226 -737 -259 -54 -29 -113 -88 -137 -141 -26 -55 -29
-89 -14 -132 9 -26 9 -27 -5 -9 -22 29 -29 83 -16 128 15 47 88 130 146 163
35 20 605 226 725 262 61 18 166 10 224 -17z m-53 -93 c44 -23 74 -66 81 -117
3 -23 -5 -27 -112 -67 -63 -24 -117 -43 -120 -43 -3 0 -17 32 -30 70 -13 39
-25 70 -27 70 -5 0 -459 -162 -490 -176 l-33 -13 20 -45 c40 -94 40 -94 -89
-137 -63 -21 -115 -38 -117 -36 -1 1 -9 16 -18 34 -33 65 -11 139 62 205 55
49 50 47 330 148 136 48 270 97 297 109 73 29 187 29 246 -2z m-242 -262 c12
-31 21 -60 21 -65 0 -17 20 -12 168 41 79 28 145 49 148 46 3 -2 27 -152 54
-331 48 -315 49 -328 32 -351 -9 -14 -19 -25 -22 -25 -3 0 -23 52 -45 115 -21
64 -44 114 -50 112 -107 -40 -239 -77 -245 -71 -4 5 -31 77 -60 159 -30 83
-57 154 -60 158 -4 5 -24 2 -44 -7 l-36 -15 59 -169 60 -170 -120 -42 c-66
-24 -122 -46 -125 -51 -3 -5 14 -61 36 -125 23 -64 40 -118 38 -119 -4 -4 -77
11 -83 17 -23 23 -345 572 -339 578 5 4 63 27 129 50 66 23 130 46 142 51 l23
8 -26 71 c-15 39 -25 72 -23 74 12 8 317 115 331 115 11 1 23 -17 37 -54z
m305 -663 l30 -93 -29 -24 c-43 -35 -172 -100 -229 -115 -27 -8 -78 -14 -114
-14 l-64 -1 -34 94 c-19 52 -32 96 -30 98 10 10 412 152 425 150 9 -1 27 -39
45 -95z m-30 -399 c20 -59 20 -122 0 -151 -20 -28 -63 -29 -93 0 -26 24 -75
122 -69 139 4 11 110 57 135 58 6 1 18 -20 27 -46z"/>
<path d="M4954 11366 c-85 -37 -59 -166 34 -166 97 0 125 129 36 166 -39 16
-32 16 -70 0z"/>
<path d="M4356 11144 c-37 -37 -35 -86 3 -125 31 -31 59 -36 94 -18 62 32 74
94 28 140 -39 38 -88 40 -125 3z"/>
<path d="M9095 11322 c-22 -11 -52 -32 -66 -48 -15 -16 -127 -251 -249 -522
-215 -476 -222 -495 -218 -545 6 -69 49 -133 128 -189 34 -23 56 -46 52 -52
-3 -6 -19 -29 -34 -52 -15 -22 -32 -53 -38 -68 -8 -22 -14 -26 -33 -21 -39 12
-106 55 -117 75 -28 53 3 100 54 80 34 -13 53 -4 61 27 7 31 -7 49 -50 63 -45
15 -107 -2 -134 -36 -52 -66 -43 -152 22 -217 37 -37 130 -87 162 -87 8 0 23
-20 34 -45 16 -36 29 -50 63 -65 24 -11 53 -20 66 -20 15 0 43 -22 82 -64 68
-73 116 -99 176 -98 113 1 179 109 124 200 -24 40 -43 48 -76 34 -28 -14 -30
-33 -7 -73 21 -35 10 -62 -27 -67 -40 -6 -71 8 -116 55 l-45 45 48 52 c26 29
53 61 59 71 11 19 13 19 57 -13 102 -73 208 -93 272 -53 61 38 800 733 823
774 49 89 17 213 -82 312 -71 72 -671 505 -742 536 -70 31 -195 36 -249 11z
m216 -92 c49 -15 103 -48 224 -135 88 -64 227 -164 308 -222 82 -59 162 -122
178 -142 59 -71 90 -166 75 -226 -4 -14 -23 -44 -44 -67 -76 -84 -685 -644
-724 -665 -86 -48 -133 -29 -398 162 -192 139 -280 216 -280 248 0 5 19 -8 43
-30 129 -119 486 -375 543 -389 54 -14 92 15 437 331 188 173 352 329 365 346
48 69 18 204 -65 286 -57 57 -579 432 -638 459 -67 31 -129 39 -183 24 -77
-20 -102 -55 -213 -298 -56 -122 -104 -221 -105 -219 -5 4 204 464 225 496 21
33 86 61 142 61 26 0 75 -9 110 -20z m37 -126 c38 -18 52 -31 48 -41 -3 -8 -6
-19 -6 -24 0 -16 -83 -100 -124 -126 -60 -39 -143 -63 -211 -63 -34 0 -64 3
-67 6 -8 7 88 224 106 242 46 47 164 50 254 6z m186 -128 l67 -49 -43 -44
c-125 -128 -339 -193 -489 -150 -52 15 -109 50 -109 65 0 4 46 7 103 7 99 0
106 2 178 37 92 46 148 93 179 152 14 26 29 42 35 38 6 -4 42 -29 79 -56z
m250 -181 c19 -15 19 -16 -11 -48 -100 -105 -131 -315 -66 -446 15 -31 30 -59
31 -63 10 -22 -52 -4 -83 24 -126 110 -141 421 -30 590 l26 39 57 -41 c31 -22
66 -47 76 -55z m-260 -46 c-22 -60 -30 -223 -15 -300 23 -115 96 -237 153
-254 19 -7 19 -8 2 -26 -17 -19 -18 -19 -45 14 -28 34 -134 97 -162 97 -8 0
-25 16 -37 35 -26 43 -105 101 -163 121 -28 9 -49 24 -58 41 -21 39 -102 99
-159 118 -33 11 -73 16 -115 13 -36 -1 -65 -2 -65 0 0 1 16 34 35 72 l35 69
36 -24 c110 -75 306 -70 470 11 40 20 79 42 85 50 19 23 20 10 3 -37z m381
-50 c51 -56 75 -113 75 -178 l0 -55 -97 -93 c-54 -51 -101 -93 -104 -93 -4 0
-17 21 -30 48 -32 66 -32 202 0 285 24 60 78 127 104 127 8 0 31 -19 52 -41z
m-1099 -76 c-14 -26 -25 -45 -26 -41 0 12 43 98 48 94 2 -2 -8 -26 -22 -53z
m233 -73 c48 -22 121 -77 121 -91 0 -5 -12 -9 -27 -9 -39 -1 -113 -36 -113
-54 0 -25 15 -26 56 -6 76 39 187 17 272 -54 39 -34 41 -46 5 -46 -39 -1 -113
-36 -113 -54 0 -25 16 -27 61 -6 24 11 61 20 81 20 55 0 137 -35 188 -80 l45
-39 -130 -125 c-146 -141 -140 -138 -268 -110 -196 43 -352 167 -446 354 l-38
75 43 95 c54 119 60 129 87 140 40 16 129 11 176 -10z m-288 -47 c-11 -21 -20
-35 -21 -31 0 12 33 78 38 74 2 -2 -6 -21 -17 -43z m-50 -110 c-12 -20 -14
-14 -5 12 4 9 9 14 11 11 3 -2 0 -13 -6 -23z m-51 -143 c-7 -53 -8 -53 -9 -13
-1 38 7 78 14 71 2 -2 0 -28 -5 -58z m296 -422 c8 -12 -50 -88 -83 -110 -70
-45 -137 -4 -115 70 6 20 25 59 42 85 l30 48 61 -42 c33 -24 62 -46 65 -51z"/>
<path d="M3337 11246 c-74 -31 -58 -20 -421 -290 -316 -236 -368 -282 -407
-358 -30 -59 -38 -166 -15 -216 13 -28 125 -133 423 -397 223 -198 417 -366
432 -374 33 -18 107 -19 152 -1 19 7 63 33 98 58 59 40 65 42 75 25 5 -10 32
-42 60 -71 l51 -54 -53 -49 c-48 -46 -55 -50 -94 -47 -35 2 -44 7 -46 25 -2
12 4 36 13 53 15 30 15 33 -1 51 -24 27 -48 24 -78 -12 -20 -23 -26 -42 -26
-75 0 -64 23 -102 77 -126 51 -22 92 -19 154 12 34 18 129 113 129 130 0 4 21
11 47 15 36 5 56 16 85 45 21 21 38 47 38 57 0 16 14 25 58 42 118 43 182 114
182 203 0 107 -113 172 -198 112 -23 -16 -28 -39 -12 -64 6 -10 26 -15 62 -15
53 0 53 0 56 -33 4 -41 -16 -65 -80 -98 -61 -31 -73 -30 -88 6 -7 17 -26 49
-43 72 l-30 41 67 60 c116 103 135 179 76 297 -18 36 -122 256 -232 490 -110
234 -210 436 -221 449 -58 64 -185 80 -290 37z m200 -85 c23 -11 49 -31 58
-45 9 -14 109 -218 222 -453 224 -465 231 -488 195 -559 -30 -58 -48 -74 -261
-233 -222 -165 -266 -191 -327 -191 -61 0 -80 10 -159 85 -62 59 -63 61 -10
15 70 -60 123 -90 161 -90 68 0 568 376 595 448 6 15 7 43 4 62 -4 19 -72 170
-152 335 -283 586 -281 583 -365 606 -60 16 -157 -1 -219 -40 -27 -16 -174
-127 -328 -246 -302 -233 -330 -262 -352 -362 -11 -48 -10 -62 3 -101 l17 -45
-21 21 c-28 28 -35 106 -15 166 33 96 65 127 376 360 164 123 313 232 332 242
89 46 178 55 246 25z m-46 -102 c51 -17 68 -37 105 -117 33 -72 33 -73 14 -92
-67 -67 -94 -202 -87 -434 6 -233 38 -344 128 -441 l40 -43 -48 -29 c-73 -44
-140 -70 -231 -88 -70 -14 -85 -15 -100 -3 -115 91 -612 539 -626 565 -25 46
-13 53 27 16 107 -102 307 -170 405 -139 36 12 62 78 62 161 0 133 -47 255
-132 341 l-50 52 129 99 c160 125 174 134 231 149 60 16 91 17 133 3z m244
-399 c30 -60 55 -112 55 -115 0 -3 -6 -5 -14 -5 -32 0 -91 -89 -143 -220 -17
-41 -26 138 -13 250 12 109 37 200 55 200 3 0 30 -49 60 -110z m-786 60 l32
-29 -42 -38 c-53 -48 -89 -122 -89 -185 0 -27 -4 -48 -9 -48 -13 0 -87 62
-111 93 -38 48 -17 81 120 186 36 27 66 50 66 50 1 1 16 -12 33 -29z m115
-173 c18 -53 22 -192 6 -202 -6 -4 -35 -1 -64 5 -51 10 -54 13 -61 47 -13 73
11 146 64 190 31 25 34 23 55 -40z m818 -184 l51 -107 -36 -70 c-19 -39 -56
-100 -83 -135 l-48 -64 -23 29 c-52 65 -49 193 6 326 24 56 67 125 79 127 2 1
26 -47 54 -106z m-721 -500 c13 -16 12 -17 -3 -4 -10 7 -18 15 -18 17 0 8 8 3
21 -13z m732 -40 c60 -88 68 -149 22 -179 -20 -13 -27 -13 -57 -1 -31 13 -118
100 -118 118 0 8 110 98 121 99 4 0 18 -17 32 -37z"/>
<path d="M6045 10319 c-302 -30 -600 -92 -865 -179 -1413 -467 -2440 -1685
-2660 -3152 -62 -417 -51 -930 30 -1338 241 -1214 1039 -2243 2154 -2781 407
-196 847 -319 1326 -370 148 -16 591 -16 740 0 299 32 586 92 841 175 1509
492 2567 1830 2700 3416 15 171 6 644 -15 797 -113 844 -458 1588 -1014 2183
-576 618 -1273 1013 -2091 1184 -251 53 -401 68 -741 71 -173 2 -355 -1 -405
-6z m273 -421 l2 -328 -101 0 c-137 0 -274 -22 -512 -81 -110 -28 -201 -48
-204 -45 -3 2 -42 142 -87 311 l-83 307 26 10 c182 70 430 121 665 138 77 6
161 12 186 14 25 1 59 3 75 2 l30 -1 3 -327z m458 312 c143 -10 307 -35 424
-65 117 -29 260 -79 260 -90 0 -14 -159 -607 -164 -613 -3 -2 -56 8 -118 23
-315 74 -518 105 -689 105 l-109 0 0 323 c0 178 3 327 7 331 7 7 147 2 389
-14z m-1416 -491 c55 -161 100 -293 100 -295 0 -1 -12 -5 -27 -9 -129 -31
-466 -191 -707 -335 -108 -64 -141 -79 -147 -69 -5 8 -85 129 -178 269 l-170
255 37 33 c56 52 245 174 362 236 199 105 606 250 622 221 4 -7 53 -145 108
-306z m2530 209 c216 -84 408 -187 583 -315 48 -36 87 -69 87 -75 0 -8 -323
-509 -346 -537 -2 -2 -41 19 -86 46 -270 164 -521 287 -720 353 -38 13 -68 25
-68 29 0 5 180 533 201 588 l8 21 118 -35 c65 -19 165 -53 223 -75z m-3522
-695 l193 -256 -23 -16 c-145 -101 -391 -334 -556 -526 -47 -55 -93 -108 -103
-119 -16 -18 -26 -11 -260 175 -134 106 -248 196 -253 200 -28 24 229 341 404
497 125 112 379 303 399 301 3 0 93 -115 199 -256z m4384 176 c278 -200 497
-419 651 -652 l39 -58 -29 -22 c-15 -12 -128 -102 -250 -199 -123 -98 -224
-178 -226 -178 -2 0 -54 57 -114 128 -142 162 -350 366 -478 467 -55 44 -102
80 -103 81 -5 3 382 514 390 514 3 0 57 -37 120 -81z m-2121 61 c1059 -83
1985 -689 2488 -1631 458 -859 468 -1931 26 -2804 -132 -261 -271 -466 -457
-676 -417 -467 -997 -809 -1603 -944 -260 -58 -367 -69 -675 -69 -298 -1 -367
5 -602 50 -836 161 -1591 690 -2034 1426 -499 827 -579 1844 -217 2738 281
696 814 1269 1488 1600 381 187 718 277 1170 313 95 8 291 6 416 -3z m-3039
-1005 c139 -98 255 -179 256 -180 2 -2 -31 -56 -74 -121 -93 -140 -213 -370
-305 -584 -44 -101 -72 -154 -81 -152 -55 13 -588 217 -588 226 0 21 37 141
75 241 36 97 118 270 172 364 84 145 263 393 280 387 6 -3 125 -84 265 -181z
m5974 72 c121 -166 187 -275 269 -442 66 -134 165 -396 165 -436 0 -14 -109
-57 -595 -235 -5 -2 -30 47 -55 109 -70 176 -221 470 -311 607 -45 69 -82 130
-83 137 -1 10 508 373 523 373 3 0 43 -51 87 -113z m-6481 -1063 c160 -47 293
-88 297 -90 4 -3 0 -26 -8 -52 -64 -205 -134 -645 -134 -851 l0 -54 -222 7
c-123 3 -269 9 -325 12 l-101 7 -6 30 c-9 43 -7 206 4 325 18 199 56 384 127
612 41 133 49 151 66 145 6 -2 143 -43 302 -91z m6995 -49 c98 -302 156 -694
135 -903 l-7 -69 -101 -7 c-56 -3 -201 -9 -323 -12 l-221 -7 -7 119 c-15 251
-63 546 -120 744 -14 47 -22 88 -18 92 13 12 607 186 613 179 4 -3 26 -64 49
-136z m-6846 -1122 c16 -240 53 -470 120 -735 17 -71 32 -128 31 -128 0 0
-139 -40 -310 -90 -170 -49 -313 -86 -317 -82 -4 4 -26 63 -48 131 -47 142
-94 368 -110 526 -12 124 -18 440 -9 450 6 5 283 17 571 23 l66 2 6 -97z
m6834 81 l142 -6 0 -157 c0 -313 -51 -622 -146 -888 -24 -66 -28 -72 -49 -67
-62 16 -596 172 -600 175 -2 3 9 56 26 119 68 269 107 504 116 708 l6 133 181
-6 c100 -3 245 -8 324 -11z m-6629 -1096 c71 -183 203 -436 336 -643 28 -44
54 -85 58 -92 5 -8 -37 -42 -120 -99 -71 -48 -186 -128 -256 -176 -70 -49
-134 -91 -141 -94 -8 -3 -34 21 -64 58 -135 170 -270 410 -358 634 -51 130
-109 303 -103 308 8 6 584 215 595 216 5 0 30 -51 53 -112z m6266 6 c160 -58
293 -108 296 -112 7 -7 -56 -202 -106 -327 -46 -118 -142 -305 -206 -405 -69
-107 -189 -270 -200 -270 -3 0 -118 77 -255 171 -137 94 -255 173 -261 176 -7
3 -13 9 -13 13 0 5 31 57 69 117 140 220 270 471 333 642 12 31 25 66 29 79 5
12 12 22 17 22 4 0 138 -47 297 -106z m-5793 -843 c120 -156 343 -373 569
-555 l86 -70 -191 -257 c-105 -142 -196 -258 -202 -258 -14 -1 -167 104 -261
180 -110 89 -284 266 -379 384 -100 124 -164 212 -164 222 1 8 490 402 500
402 3 0 22 -22 42 -48z m5276 -159 l242 -193 -31 -45 c-122 -178 -356 -432
-521 -565 -114 -91 -245 -182 -258 -177 -5 2 -95 118 -200 257 -151 203 -188
257 -178 267 7 6 69 58 138 115 155 127 374 341 471 459 41 50 77 86 83 82 6
-3 120 -93 254 -200z m-4490 -553 c137 -86 364 -197 573 -279 98 -38 183 -70
189 -70 5 0 10 -3 10 -7 0 -8 -201 -605 -206 -612 -5 -6 -108 21 -228 61 -216
72 -430 181 -649 328 -77 52 -141 98 -141 101 -1 8 345 539 351 539 3 0 48
-27 101 -61z m3677 -201 c94 -144 171 -266 173 -272 3 -12 -222 -165 -343
-234 -175 -100 -358 -177 -554 -234 -96 -28 -113 -30 -121 -18 -11 18 -200
581 -200 596 0 6 53 30 118 54 251 93 486 206 667 319 44 28 82 51 85 51 3 0
82 -118 175 -262z m-2704 -212 c179 -46 313 -66 497 -73 l152 -6 0 -327 0
-327 -93 -7 c-103 -8 -277 10 -457 45 -182 36 -390 94 -390 110 0 13 152 619
155 619 2 0 63 -15 136 -34z m1671 -277 c43 -167 78 -307 78 -311 0 -4 -26
-14 -57 -23 -340 -99 -636 -143 -870 -130 l-123 7 0 329 0 329 109 0 c200 0
582 51 736 99 17 5 34 8 39 7 5 -1 45 -139 88 -307z"/>
<path d="M5924 10010 c-57 -23 -73 -109 -28 -154 20 -20 37 -26 69 -26 50 0
83 29 92 83 5 32 1 41 -30 72 -35 35 -62 42 -103 25z"/>
<path d="M5446 9984 c-33 -33 -20 -69 52 -141 152 -155 370 -233 564 -203 158
24 204 49 190 102 -9 36 -37 40 -119 18 -211 -55 -400 -3 -562 157 -45 46 -89
83 -96 83 -8 0 -21 -7 -29 -16z"/>
<path d="M6478 10139 c-65 -37 66 -200 224 -280 82 -41 159 -59 258 -59 103 0
180 18 277 66 78 37 95 62 73 103 -15 29 -50 27 -113 -9 -94 -53 -220 -72
-329 -49 -102 21 -177 65 -265 155 -82 85 -94 92 -125 73z"/>
<path d="M6654 9820 c-46 -19 -67 -77 -43 -122 13 -25 72 -50 96 -41 10 3 28
15 41 26 62 56 -16 170 -94 137z"/>
<path d="M4904 9851 c-78 -38 -144 -76 -147 -85 -12 -31 -8 -52 33 -154 46
-114 50 -165 20 -243 -39 -103 -103 -139 -178 -100 -22 11 -43 25 -47 31 -9
14 -48 13 -63 -2 -51 -51 59 -138 173 -138 102 0 184 85 220 229 20 77 11 144
-34 252 -17 40 -30 74 -28 75 9 8 149 74 156 74 6 0 50 -83 99 -183 53 -109
96 -186 107 -191 22 -8 65 18 65 39 0 22 -217 465 -227 464 -4 0 -71 -31 -149
-68z"/>
<path d="M4481 9529 c-26 -26 -31 -38 -31 -80 0 -42 5 -55 34 -87 31 -34 39
-37 86 -37 46 0 55 4 81 33 50 56 34 153 -31 187 -50 26 -104 20 -139 -16z"/>
<path d="M7834 9836 c-142 -35 -245 -170 -243 -319 1 -73 17 -125 46 -144 17
-12 23 -11 43 5 21 17 22 22 12 52 -17 47 -15 144 4 188 35 86 115 136 214
136 79 0 131 -24 183 -84 106 -124 51 -316 -105 -371 -42 -14 -55 -38 -38 -69
32 -59 194 35 250 147 35 69 40 187 10 265 -54 145 -224 233 -376 194z"/>
<path d="M7844 9634 c-40 -19 -64 -62 -64 -114 0 -36 6 -48 39 -81 34 -34 44
-39 86 -39 57 0 100 23 120 66 20 43 19 73 -5 112 -39 64 -112 88 -176 56z"/>
<path d="M4059 9327 c-316 -239 -503 -473 -503 -629 -1 -42 5 -64 20 -85 106
-144 398 -41 750 266 108 94 122 122 80 158 -15 13 -31 23 -36 23 -4 0 -32
-20 -62 -45 -215 -183 -305 -247 -429 -304 -133 -62 -209 -66 -209 -12 0 104
165 303 411 497 117 92 129 114 89 154 -29 29 -48 25 -111 -23z"/>
<path d="M8656 9280 c-66 -71 -115 -178 -123 -269 -18 -215 151 -429 370 -470
144 -26 272 54 313 198 32 107 -18 210 -130 269 -43 22 -64 27 -131 27 -67 0
-87 -4 -124 -25 -57 -32 -99 -85 -120 -151 l-17 -52 -22 35 c-66 107 -44 246
59 370 43 52 48 77 21 101 -29 26 -46 21 -96 -33z m393 -369 c77 -40 95 -114
47 -195 -36 -61 -72 -79 -150 -74 -71 4 -137 33 -185 80 -34 33 -34 33 -10 36
34 5 46 18 53 57 8 42 49 93 91 111 37 18 102 11 154 -15z"/>
<path d="M6348 9117 c-30 -77 -618 -1498 -627 -1514 -11 -20 -31 16 -97 179
-96 235 -159 330 -252 381 -153 83 -355 20 -647 -201 -55 -42 -139 -104 -187
-138 -48 -34 -99 -75 -113 -92 -34 -41 -62 -106 -70 -167 -15 -118 59 -312
190 -493 36 -50 65 -95 65 -100 0 -18 -30 -21 -112 -12 -49 6 -96 6 -118 1
-19 -5 -64 -14 -100 -21 -124 -22 -290 -121 -373 -222 -54 -66 -104 -153 -129
-227 -33 -95 -32 -251 2 -336 78 -200 263 -360 485 -420 87 -24 293 -30 378
-12 37 8 67 13 67 12 0 -14 -43 -116 -105 -246 -103 -216 -136 -318 -137 -419
0 -93 19 -156 67 -222 64 -88 333 -226 635 -325 144 -48 172 -54 221 -50 86 7
169 49 234 118 51 53 105 148 105 184 0 20 23 19 68 -4 99 -50 320 -102 497
-116 222 -18 571 57 753 162 24 14 45 23 46 21 2 -1 8 -25 15 -52 18 -72 47
-123 107 -186 64 -67 138 -107 227 -123 79 -13 143 -1 243 47 38 18 139 59
224 90 274 103 380 172 440 290 32 63 35 76 35 155 0 104 -10 134 -121 381
-78 174 -113 274 -101 286 3 3 25 0 48 -7 25 -8 98 -13 169 -13 100 0 141 4
204 22 241 69 434 238 503 441 41 119 27 295 -32 410 -83 165 -248 294 -451
353 -66 19 -102 23 -226 23 -95 0 -144 4 -140 10 3 6 38 60 78 120 133 205
178 315 179 441 0 73 -3 87 -35 149 -33 64 -44 75 -160 161 -306 226 -413 292
-554 339 -245 82 -410 -54 -540 -450 -41 -124 -58 -155 -86 -155 -32 0 -69 63
-134 227 -35 87 -79 190 -98 228 -20 39 -142 306 -273 595 -130 289 -240 528
-244 532 -4 4 -14 -11 -23 -35z m316 -888 c158 -347 286 -633 283 -635 -3 -3
-18 1 -34 9 -45 23 -181 65 -273 84 -62 13 -130 18 -250 18 -186 -1 -281 -15
-441 -69 l-97 -32 16 41 c130 325 498 1215 503 1215 3 0 135 -284 293 -631z
m1037 -184 c40 -13 517 -322 562 -364 51 -46 81 -118 81 -191 0 -85 -8 -100
-207 -428 -92 -150 -167 -275 -167 -276 0 -2 32 9 71 26 381 160 827 -38 889
-394 53 -306 -239 -588 -610 -588 -114 0 -212 23 -312 74 -49 24 -88 41 -88
39 0 -3 67 -166 149 -362 82 -197 155 -377 161 -401 24 -90 -16 -211 -90 -270
-42 -34 -588 -265 -647 -275 -94 -15 -206 34 -259 112 -11 17 -38 80 -59 139
-21 60 -42 119 -46 132 -9 22 -9 22 -66 -15 -189 -121 -402 -183 -653 -190
-230 -7 -406 28 -607 122 l-92 43 -31 -81 c-45 -120 -55 -141 -90 -180 -48
-55 -112 -81 -195 -81 -67 1 -84 7 -353 121 -155 67 -297 131 -315 143 -75 52
-125 160 -114 249 3 27 71 200 161 414 86 202 156 369 156 371 0 2 -24 -9 -52
-24 -106 -57 -189 -75 -338 -74 -118 0 -145 4 -215 27 -109 36 -196 90 -265
164 -143 152 -173 342 -84 522 136 275 534 401 842 265 30 -13 56 -23 57 -22
1 2 -69 120 -157 263 -208 338 -211 345 -207 444 7 134 16 144 336 358 149
100 289 186 310 192 98 28 219 5 270 -50 22 -25 236 -477 231 -490 -2 -4 -41
-35 -88 -70 -276 -203 -464 -501 -537 -849 -28 -133 -25 -402 5 -539 31 -137
62 -223 129 -352 164 -319 451 -561 795 -673 161 -52 223 -61 428 -61 140 0
205 5 268 18 266 58 492 178 682 363 201 195 330 427 391 705 31 138 34 408 6
538 -57 262 -161 471 -334 667 -46 53 -114 114 -213 192 l-24 19 118 254 c65
140 128 265 140 277 58 65 169 83 277 47z m-1055 -544 c98 -21 254 -77 254
-91 0 -4 -29 -35 -65 -68 -205 -192 -528 -226 -772 -80 -31 18 -86 61 -122 96
l-66 63 55 23 c74 30 199 63 285 75 104 15 324 5 431 -18z m-814 -234 c46 -46
105 -96 131 -111 26 -16 47 -30 45 -31 -2 -2 -23 1 -48 5 -70 14 -238 11 -315
-5 -38 -8 -105 -32 -148 -53 -42 -21 -76 -35 -75 -31 8 21 119 146 167 187 44
39 151 120 158 122 1 0 39 -37 85 -83z m1288 15 c96 -75 207 -194 265 -286 17
-26 14 -25 -50 18 -80 54 -151 82 -253 102 -81 15 -203 18 -270 5 -49 -10 -49
-10 28 41 30 21 86 69 124 107 78 79 73 78 156 13z m-711 -252 l106 0 -50 -30
c-27 -17 -58 -36 -67 -42 -14 -10 -23 -8 -49 11 -18 13 -51 35 -73 48 l-41 25
34 -6 c18 -3 81 -6 140 -6z m-483 -11 c140 -24 304 -97 384 -169 54 -49 80
-50 132 -5 58 49 180 110 283 141 124 37 296 40 400 7 79 -25 172 -82 224
-137 36 -37 76 -47 98 -25 6 6 16 8 21 5 29 -18 112 -311 112 -397 l0 -36 -61
-1 c-150 -2 -290 -95 -361 -239 -31 -64 -33 -74 -33 -179 0 -107 1 -112 37
-186 36 -72 79 -121 153 -174 l29 -21 -49 -58 c-232 -273 -609 -432 -970 -411
-335 19 -626 161 -846 413 l-49 56 43 27 c98 63 169 170 189 289 42 247 -155
483 -404 483 l-68 0 0 36 c0 60 37 221 71 314 32 85 33 86 63 81 26 -4 39 3
86 47 64 59 174 117 257 135 73 16 182 18 259 4z m-573 -755 c64 -22 139 -91
168 -156 33 -74 33 -185 0 -248 -43 -84 -145 -167 -168 -137 -23 29 -20 36 26
65 199 123 107 434 -129 434 -60 0 -60 0 -60 29 0 29 1 29 58 29 32 0 79 -7
105 -16z m2227 -13 c0 -28 -2 -29 -48 -29 -103 0 -197 -73 -227 -176 -18 -61
-13 -109 16 -167 18 -35 84 -102 110 -111 11 -4 10 -10 -4 -32 l-18 -27 -47
34 c-84 60 -122 137 -122 243 2 166 126 292 288 294 51 0 52 -1 52 -29z"/>
<path d="M6318 8317 c-171 -48 -260 -239 -189 -403 64 -146 249 -211 394 -140
175 85 218 311 88 459 -66 74 -195 111 -293 84z m170 -96 c120 -62 154 -213
70 -315 -82 -100 -240 -103 -321 -7 -81 97 -52 255 58 318 52 29 140 31 193 4z"/>
<path d="M6309 8167 c-128 -85 -68 -289 85 -289 169 0 224 220 75 297 -43 23
-120 19 -160 -8z"/>
<path d="M5175 7900 c-28 -11 -37 -23 -80 -107 -22 -43 -56 -90 -86 -118 l-51
-47 -78 6 c-68 6 -84 5 -120 -14 -68 -34 -103 -115 -81 -183 7 -20 47 -71 94
-120 70 -73 90 -87 136 -101 30 -9 68 -16 85 -16 66 0 199 80 394 234 113 90
122 100 122 131 0 54 -61 77 -81 31 -6 -13 -23 -29 -36 -35 -14 -7 -34 -23
-45 -36 -10 -13 -29 -27 -41 -31 -12 -4 -37 -20 -55 -35 -18 -16 -39 -29 -47
-29 -7 0 -27 -13 -43 -30 -34 -33 -59 -37 -101 -15 -68 35 -57 128 18 158 22
9 41 21 41 27 0 6 17 18 37 28 20 9 47 27 59 40 13 12 35 22 52 22 16 0 37 9
47 20 10 11 31 20 47 20 26 0 29 3 26 28 -2 16 -12 31 -25 37 -17 7 -23 18
-23 43 0 50 -55 102 -106 101 -22 0 -48 -4 -59 -9z m-317 -382 c7 -7 12 -21
12 -33 0 -47 -62 -63 -81 -21 -22 47 33 90 69 54z"/>
<path d="M7556 7848 c-9 -12 -16 -27 -16 -33 0 -5 32 -39 70 -75 62 -56 75
-74 96 -134 14 -38 23 -71 20 -73 -7 -8 -145 26 -180 44 -17 9 -48 29 -69 45
-27 22 -44 28 -62 24 -26 -7 -40 -35 -30 -65 8 -28 88 -78 154 -98 31 -9 60
-20 65 -25 6 -4 -14 -43 -48 -92 l-58 -84 107 -142 c59 -78 108 -140 110 -138
1 2 21 36 44 77 l42 74 -23 16 c-12 9 -45 32 -73 51 -51 37 -70 70 -40 70 10
0 46 -21 82 -46 61 -44 93 -51 93 -21 0 8 -31 35 -70 61 -65 43 -83 67 -61 80
5 4 42 -17 82 -44 85 -59 73 -64 145 67 25 45 53 84 62 87 9 3 59 15 110 26
l93 22 -113 71 c-142 88 -209 119 -262 121 -32 0 -46 7 -65 29 -33 40 -152
127 -173 127 -9 0 -24 -10 -32 -22z m348 -239 c36 -28 32 -63 -7 -67 -49 -6
-86 45 -55 76 17 17 32 15 62 -9z"/>
<path d="M4258 6680 c-39 -21 -75 -70 -84 -118 -5 -25 -2 -33 20 -47 14 -10
42 -40 63 -67 28 -39 36 -60 36 -93 0 -45 -13 -70 -86 -156 -37 -45 -38 -48
-28 -87 7 -25 26 -53 50 -75 68 -62 154 -62 221 0 44 39 60 81 60 161 0 61 15
69 24 12 8 -52 65 -116 117 -132 49 -14 105 1 152 41 17 16 52 37 77 48 54 24
78 49 62 65 -6 6 -28 19 -49 28 l-38 17 58 26 c31 14 57 30 57 36 0 5 -20 17
-45 26 -63 25 -73 39 -35 55 17 7 37 22 45 33 13 18 13 23 -2 39 -9 10 -40 25
-68 34 -29 8 -62 26 -75 39 -49 53 -133 56 -190 8 -55 -46 -74 -97 -72 -193 0
-47 -3 -92 -8 -100 -6 -10 -10 37 -10 134 0 131 -3 155 -21 193 -40 83 -147
117 -231 73z m107 -90 c23 -25 15 -59 -17 -83 l-28 -21 -27 21 c-38 27 -41 65
-8 91 28 22 55 20 80 -8z m-5 -430 c24 -24 25 -48 4 -78 -31 -44 -104 -16
-104 40 0 24 35 58 60 58 11 0 29 -9 40 -20z"/>
<path d="M8304 6606 c-48 -15 -126 -57 -121 -65 5 -11 52 -106 52 -108 1 -1
18 3 38 9 31 9 43 9 72 -5 30 -14 37 -15 62 -2 36 19 57 19 93 0 41 -21 60
-53 60 -101 0 -79 -82 -135 -149 -101 -28 14 -35 14 -68 1 -33 -14 -56 -14
-96 2 -10 3 -18 -2 -22 -15 -3 -11 -17 -36 -30 -55 l-25 -36 40 -29 c92 -67
245 -78 358 -26 240 110 242 403 4 513 -68 31 -201 40 -268 18z"/>
<path d="M4086 6475 c-55 -19 -115 -82 -122 -126 -17 -100 171 -178 260 -108
85 67 69 193 -31 235 -40 17 -57 17 -107 -1z"/>
<path d="M8004 6456 c-47 -21 -74 -61 -74 -113 0 -38 5 -50 34 -79 29 -29 41
-34 79 -34 129 0 169 169 52 224 -40 19 -51 19 -91 2z"/>
<path d="M7679 5406 c-24 -42 -46 -52 -69 -31 -23 21 -46 19 -71 -6 -16 -16
-20 -29 -16 -56 8 -45 0 -63 -28 -63 -53 0 -74 -74 -30 -108 29 -23 32 -57 9
-83 -33 -36 8 -105 56 -95 33 6 50 -9 50 -44 0 -65 72 -96 106 -45 20 31 28
31 42 0 23 -51 112 -36 112 20 0 24 0 24 29 7 24 -13 34 -14 55 -4 52 23 47
75 -12 116 l-39 27 -52 -21 c-69 -27 -140 -26 -175 1 -77 60 -74 192 6 243 13
8 43 20 68 27 66 18 83 36 75 79 -9 46 -31 70 -67 70 -22 0 -33 -8 -49 -34z"/>
<path d="M5035 5412 c-40 -25 -51 -40 -62 -82 l-10 -35 -21 42 c-26 51 -39 60
-59 40 -13 -13 -12 -19 6 -54 11 -22 32 -55 47 -72 15 -18 23 -36 18 -40 -5
-5 -36 -13 -69 -19 -80 -14 -115 -28 -115 -47 0 -24 19 -26 90 -11 36 7 69 10
73 6 10 -9 -18 -127 -34 -147 -17 -20 -49 -16 -86 13 -37 28 -63 26 -63 -6 0
-13 16 -31 47 -50 52 -33 88 -38 120 -15 18 13 22 12 39 -7 27 -31 143 -81
187 -81 30 0 37 -3 37 -19 0 -56 129 -113 168 -75 22 23 -1 47 -44 47 -48 0
-77 31 -63 67 12 33 59 103 68 103 12 0 58 -54 75 -87 17 -33 50 -45 59 -20 6
17 -18 63 -60 115 -51 63 -44 76 49 84 88 8 118 20 118 48 0 23 -17 24 -90 10
-25 -4 -46 -7 -48 -6 -1 2 8 21 20 43 20 36 21 45 10 80 -19 62 -71 106 -182
152 -112 47 -175 53 -225 23z m203 -63 c84 -34 146 -87 158 -135 5 -19 1 -39
-12 -63 -18 -33 -23 -36 -59 -33 -102 7 -259 68 -305 117 -28 29 -21 81 13
112 46 43 103 43 205 2z m-120 -240 c56 -24 142 -78 142 -89 0 -14 -71 -115
-87 -124 -31 -17 -167 35 -191 74 -12 19 -5 89 14 159 5 17 55 9 122 -20z"/>
<path d="M7699 5227 c-36 -28 -50 -88 -29 -128 6 -10 24 -26 41 -35 90 -46
170 66 103 145 -20 24 -34 31 -62 31 -21 0 -44 -6 -53 -13z"/>
<path d="M5721 6944 c-116 -31 -212 -98 -252 -177 -18 -34 -18 -40 -5 -66 64
-123 327 -193 551 -146 39 8 104 32 146 53 l77 39 5 -54 c10 -101 80 -213 132
-213 51 0 120 109 132 209 l6 50 42 -24 c77 -46 154 -66 265 -72 172 -9 310
27 417 108 89 67 91 90 14 172 -84 90 -211 137 -371 137 -105 0 -187 -17 -267
-56 -59 -28 -134 -98 -152 -141 -11 -27 -14 -28 -80 -28 -68 0 -69 1 -87 33
-40 74 -148 148 -261 177 -72 19 -240 18 -312 -1z m213 -66 c53 -75 -54 -159
-121 -96 -27 26 -30 73 -6 100 25 28 107 25 127 -4z m1000 -10 c16 -37 5 -83
-24 -98 -52 -28 -120 8 -120 62 0 55 15 68 76 68 52 0 56 -2 68 -32z m-891 3
c52 -23 112 -73 132 -112 14 -27 14 -29 -31 -68 -72 -63 -138 -84 -269 -85
-129 -1 -190 16 -254 70 -48 42 -51 64 -15 112 26 33 107 92 128 92 6 0 11
-22 11 -51 0 -46 4 -54 37 -85 86 -79 213 -20 211 99 0 26 1 47 2 47 2 0 23
-9 48 -19z m1089 -62 c26 -27 48 -57 48 -68 0 -42 -115 -111 -218 -131 -75
-15 -187 -8 -256 16 -27 9 -68 35 -93 59 -44 42 -44 44 -30 72 19 36 73 86
114 107 18 9 34 16 36 16 3 0 7 -23 9 -52 5 -44 11 -57 42 -85 29 -27 44 -33
78 -33 79 0 127 50 128 132 l0 47 47 -16 c29 -10 65 -34 95 -64z"/>
<path d="M5993 6136 c-123 -30 -236 -114 -284 -213 -18 -37 -24 -65 -24 -118
0 -53 6 -81 24 -118 44 -90 147 -175 259 -213 61 -20 177 -20 231 2 l42 17 70
-48 c86 -58 154 -133 197 -213 36 -68 40 -69 93 -20 45 42 77 100 96 173 l19
70 54 7 c146 18 251 93 309 218 89 195 -60 419 -308 462 -91 15 -156 1 -247
-56 -100 -62 -123 -68 -171 -46 -22 10 -59 32 -83 49 -79 57 -171 72 -277 47z
m172 -90 c19 -8 60 -34 91 -58 55 -41 61 -43 123 -42 59 0 77 6 180 57 131 65
175 71 271 36 114 -42 180 -130 180 -241 0 -109 -42 -170 -155 -224 -106 -52
-145 -46 -145 20 0 51 -30 95 -95 141 -112 80 -232 104 -323 65 -56 -24 -108
-75 -118 -116 -4 -14 -4 -45 -1 -70 l5 -44 -42 -11 c-53 -14 -132 -6 -190 19
-63 28 -141 105 -162 158 -44 114 46 257 195 310 48 18 144 17 186 0z m370
-306 c33 -16 73 -42 88 -58 33 -35 52 -103 37 -132 -13 -24 -13 -90 0 -90 19
0 10 -44 -15 -81 -14 -20 -45 -51 -67 -70 l-42 -33 -20 30 c-38 53 -110 118
-171 155 -38 22 -61 42 -61 55 -1 10 -2 27 -3 37 -1 9 -10 25 -21 34 -38 33
-18 112 38 151 67 48 140 49 237 2z"/>
<path d="M6965 5475 c-14 -13 -25 -36 -25 -50 0 -14 11 -37 25 -50 13 -14 36
-25 50 -25 14 0 37 11 50 25 14 13 25 36 25 50 0 14 -11 37 -25 50 -13 14 -36
25 -50 25 -14 0 -37 -11 -50 -25z"/>
<path d="M5799 5478 c-25 -8 -49 -44 -49 -72 0 -7 9 -25 21 -40 27 -34 77 -36
107 -3 53 56 -5 140 -79 115z"/>
<path d="M6765 5385 c-14 -13 -25 -36 -25 -50 0 -14 11 -37 25 -50 13 -14 36
-25 50 -25 14 0 37 11 50 25 34 33 33 77 -1 104 -35 28 -69 26 -99 -4z"/>
<path d="M6000 5370 c-38 -38 -15 -115 35 -121 36 -5 71 10 83 36 17 36 15 48
-9 79 -26 33 -79 36 -109 6z"/>
<path d="M5476 8985 c-86 -31 -158 -121 -171 -217 -15 -104 48 -213 151 -264
48 -23 63 -26 128 -22 108 7 177 55 224 157 75 164 -55 361 -238 360 -30 0
-72 -6 -94 -14z m187 -89 c120 -65 114 -262 -9 -321 -154 -74 -320 72 -260
228 42 111 162 152 269 93z"/>
<path d="M5489 8857 c-119 -79 -63 -262 79 -262 109 0 176 116 124 214 -37 69
-137 92 -203 48z"/>
<path d="M7134 8976 c-86 -40 -154 -144 -154 -236 0 -51 30 -126 67 -169 132
-155 391 -101 448 93 19 62 19 90 0 152 -32 108 -136 184 -250 184 -42 0 -75
-7 -111 -24z m196 -71 c116 -60 135 -216 37 -302 -121 -107 -307 -24 -307 136
0 29 7 65 14 80 20 38 80 89 114 97 15 3 32 7 37 9 16 5 78 -7 105 -20z"/>
<path d="M7185 8871 c-72 -32 -105 -131 -67 -201 24 -46 99 -85 145 -76 56 10
93 41 112 90 23 59 14 107 -29 153 -29 32 -40 37 -87 39 -30 2 -63 0 -74 -5z"/>
<path d="M3837 7545 c-165 -61 -221 -268 -112 -411 36 -47 136 -94 200 -94
106 0 204 61 246 153 29 66 26 162 -9 228 -61 116 -200 169 -325 124z m145
-65 c46 -13 93 -52 115 -94 21 -40 21 -132 1 -171 -46 -87 -148 -126 -236 -90
-71 30 -122 103 -122 175 0 43 29 107 62 137 25 24 90 51 123 52 11 1 37 -4
57 -9z"/>
<path d="M3853 7420 c-63 -38 -84 -126 -47 -192 26 -45 97 -81 144 -73 73 13
120 69 120 143 0 85 -56 142 -140 142 -27 0 -58 -8 -77 -20z"/>
<path d="M8797 7546 c-147 -53 -215 -224 -144 -362 44 -88 114 -134 214 -142
198 -16 342 186 259 363 -28 60 -99 127 -154 143 -51 16 -128 15 -175 -2z
m144 -68 c84 -28 129 -90 129 -178 0 -202 -267 -260 -351 -75 -45 98 4 214
108 250 47 17 71 18 114 3z"/>
<path d="M8825 7428 c-90 -49 -109 -148 -44 -223 84 -95 232 -47 246 79 7 55
-19 111 -61 137 -35 21 -109 25 -141 7z"/>
<path d="M3992 5613 c-59 -21 -126 -91 -147 -154 -21 -62 -16 -158 9 -207 27
-53 89 -108 141 -126 135 -45 271 8 330 129 70 141 2 306 -148 362 -44 16
-134 14 -185 -4z m176 -84 c132 -64 133 -252 1 -319 -150 -77 -317 88 -240
238 47 92 146 126 239 81z"/>
<path d="M4055 5513 c-61 -16 -105 -76 -105 -145 0 -82 58 -138 142 -138 174
0 190 257 18 282 -19 3 -44 3 -55 1z"/>
<path d="M8692 5617 c-49 -15 -122 -85 -148 -142 -58 -124 -1 -281 125 -341
46 -23 134 -29 188 -15 61 17 124 69 158 131 74 138 5 314 -144 365 -50 17
-130 18 -179 2z m164 -86 c61 -28 97 -80 102 -149 4 -68 -16 -111 -71 -156
-71 -57 -189 -42 -246 30 -69 88 -39 223 61 273 53 26 100 26 154 2z"/>
<path d="M8737 5506 c-48 -18 -62 -29 -81 -70 -21 -44 -20 -89 1 -133 48 -101
202 -97 256 7 56 109 -59 238 -176 196z"/>
<path d="M6991 4591 c-76 -47 -211 -93 -341 -116 -129 -23 -397 -31 -513 -15
-108 14 -250 58 -326 100 -65 36 -90 38 -119 7 -28 -30 -28 -68 1 -94 32 -30
150 -87 231 -112 229 -71 584 -69 870 4 173 43 315 116 336 171 16 41 -19 94
-63 94 -7 0 -41 -18 -76 -39z"/>
<path d="M4580 4497 c-39 -20 -56 -58 -41 -94 12 -29 46 -53 75 -53 7 0 25 9
40 21 67 53 2 164 -74 126z"/>
<path d="M8160 4460 c-64 -64 31 -166 103 -110 56 44 24 130 -48 130 -22 0
-43 -8 -55 -20z"/>
<path d="M4777 4389 c-27 -16 -49 -67 -42 -99 4 -16 21 -41 38 -56 24 -21 38
-25 65 -20 40 6 58 20 78 58 18 36 4 90 -29 113 -24 17 -83 19 -110 4z"/>
<path d="M7931 4369 c-33 -31 -44 -66 -31 -105 29 -86 151 -85 180 1 29 87
-83 165 -149 104z"/>
<path d="M5505 4291 c-129 -34 -209 -136 -209 -266 0 -85 31 -154 95 -208 176
-151 442 -26 443 209 0 140 -106 256 -246 268 -29 3 -66 1 -83 -3z m155 -83
c26 -14 57 -41 75 -66 27 -39 30 -52 30 -117 0 -65 -3 -78 -30 -117 -42 -58
-100 -89 -169 -89 -220 0 -287 291 -91 394 45 24 132 21 185 -5z"/>
<path d="M5495 4168 c-100 -55 -121 -168 -48 -249 82 -91 221 -63 268 53 27
68 -1 148 -67 188 -37 22 -120 27 -153 8z"/>
<path d="M5049 4275 c-59 -32 -79 -98 -49 -160 48 -99 185 -97 227 2 20 50 9
99 -32 140 -27 27 -40 33 -76 33 -24 -1 -56 -7 -70 -15z"/>
<path d="M7131 4273 c-63 -22 -134 -96 -156 -162 -60 -181 69 -365 255 -363
77 0 125 19 182 70 120 108 118 302 -4 406 -74 63 -182 82 -277 49z m204 -76
c113 -63 138 -215 52 -314 -113 -129 -320 -76 -358 91 -39 178 144 311 306
223z"/>
<path d="M7164 4161 c-61 -28 -89 -73 -89 -143 0 -63 19 -97 75 -135 45 -31
115 -31 161 0 111 75 106 216 -11 275 -54 27 -82 27 -136 3z"/>
<path d="M7654 4251 c-44 -27 -64 -59 -64 -104 0 -78 48 -127 125 -127 37 0
52 6 81 33 109 100 -16 275 -142 198z"/>
<path d="M5929 4015 c-38 -21 -62 -64 -62 -110 0 -51 16 -81 56 -105 65 -40
154 -13 183 55 18 44 18 59 -3 102 -30 65 -112 92 -174 58z"/>
<path d="M6708 4014 c-36 -19 -58 -63 -58 -114 0 -32 7 -48 34 -78 32 -34 39
-37 90 -37 49 0 59 4 87 31 57 57 47 157 -20 197 -35 21 -96 21 -133 1z"/>
<path d="M6333 3970 c-63 -38 -80 -112 -40 -171 72 -107 227 -62 227 66 0 101
-101 158 -187 105z"/>
<path d="M3272 8428 c-9 -9 -12 -68 -12 -204 l0 -192 -162 -99 c-126 -76 -164
-103 -166 -121 -4 -25 13 -52 33 -52 6 0 75 38 153 84 l142 85 1 -62 c4 -188
14 -280 32 -291 12 -8 22 -8 35 0 15 10 17 33 20 210 l3 199 112 64 c161 93
217 129 224 146 6 17 -23 55 -42 55 -6 0 -75 -38 -152 -84 l-140 -83 -7 105
c-3 58 -6 133 -6 167 0 62 -11 85 -40 85 -9 0 -21 -5 -28 -12z"/>
<path d="M3411 8414 c-38 -32 -49 -80 -27 -122 22 -43 54 -62 104 -62 61 0
102 41 102 100 0 34 -6 48 -34 76 -44 44 -99 47 -145 8z"/>
<path d="M9232 8418 c-11 -13 -32 -48 -46 -78 -50 -107 -26 -209 64 -275 27
-20 118 -64 204 -99 256 -104 278 -129 236 -278 -16 -56 -4 -78 41 -78 23 0
32 7 49 41 28 55 36 128 19 186 -25 89 -106 149 -308 227 -230 89 -267 135
-201 253 35 61 37 83 12 106 -25 23 -45 21 -70 -5z"/>
<path d="M9364 8330 c-30 -12 -54 -49 -54 -83 0 -40 49 -87 90 -87 22 0 41 9
61 29 20 20 29 39 29 61 0 22 -9 41 -29 61 -30 29 -58 35 -97 19z"/>
<path d="M9560 7873 c-82 -30 -78 -148 5 -169 65 -16 126 51 104 115 -16 44
-67 69 -109 54z"/>
<path d="M2768 7354 c-29 -15 -58 -61 -58 -89 0 -48 51 -95 104 -95 55 0 98
71 82 135 -7 26 -59 65 -86 65 -8 -1 -27 -7 -42 -16z"/>
<path d="M3148 7231 c-42 -37 -46 -96 -9 -135 55 -59 161 -13 161 69 0 27 -8
44 -29 66 -39 38 -80 39 -123 0z"/>
<path d="M2702 7117 c-41 -49 -66 -304 -39 -398 34 -114 113 -179 217 -179
141 0 272 140 325 345 19 77 19 88 -5 110 -32 29 -67 13 -81 -38 -54 -204
-127 -302 -232 -314 -38 -5 -48 -1 -79 25 -19 18 -40 48 -46 70 -18 60 -15
189 8 273 17 66 17 76 4 96 -16 25 -55 31 -72 10z"/>
<path d="M9756 7384 c-22 -21 -20 -41 6 -62 117 -93 175 -177 203 -293 30
-129 11 -290 -50 -412 -35 -72 -36 -91 -3 -108 29 -16 62 11 92 75 84 178 85
417 3 591 -38 79 -79 130 -150 187 -53 41 -77 47 -101 22z"/>
<path d="M9702 7053 c-106 -52 -67 -207 53 -207 120 0 159 164 50 210 -44 18
-62 17 -103 -3z"/>
<path d="M2720 6321 c-13 -25 -13 -237 1 -377 20 -210 97 -522 140 -565 24
-24 31 -24 60 0 26 21 28 10 -25 180 -55 179 -86 393 -86 604 0 76 -5 147 -10
158 -7 12 -21 19 -40 19 -19 0 -33 -7 -40 -19z"/>
<path d="M2900 6262 c-74 -75 3 -192 101 -152 33 14 59 55 59 94 0 39 -39 76
-87 83 -37 5 -45 2 -73 -25z"/>
<path d="M2943 5958 c-12 -6 -29 -26 -38 -45 -45 -95 86 -173 157 -94 38 42
37 83 -1 122 -31 31 -76 37 -118 17z"/>
<path d="M3023 5645 c-61 -26 -72 -97 -24 -146 76 -76 202 17 151 112 -11 20
-60 49 -82 49 -7 -1 -27 -7 -45 -15z"/>
<path d="M9704 6262 c-20 -14 -23 -41 -6 -60 12 -14 41 -22 104 -30 48 -6 101
-18 118 -27 27 -14 31 -20 25 -43 -10 -42 -49 -92 -172 -224 -130 -138 -173
-203 -173 -263 0 -86 66 -136 205 -156 68 -10 78 -10 95 6 46 42 13 80 -77 89
-80 7 -133 29 -133 54 0 32 53 103 163 221 59 63 123 139 143 169 88 132 34
231 -142 261 -70 13 -134 14 -150 3z"/>
<path d="M3372 5183 c-12 -10 -46 -75 -78 -145 -31 -71 -62 -128 -69 -128 -6
0 -67 23 -135 50 -155 63 -178 64 -198 10 -12 -30 1 -68 25 -77 10 -3 81 -32
158 -64 158 -64 147 -53 238 -228 54 -103 60 -111 87 -111 33 0 70 30 70 56 0
9 -30 74 -67 144 l-66 128 66 150 c37 82 67 159 67 171 0 26 -34 61 -59 61
-10 0 -28 -8 -39 -17z"/>
<path d="M9532 5194 c-33 -23 -31 -86 4 -113 43 -34 86 -26 110 20 37 73 -46
141 -114 93z"/>
<path d="M9719 5060 c-63 -121 -112 -166 -243 -224 -131 -57 -177 -87 -243
-160 -72 -79 -107 -144 -93 -174 8 -17 17 -23 37 -20 21 2 34 16 60 60 45 77
112 141 181 173 197 92 226 109 280 163 66 66 135 188 130 230 -2 22 -9 28
-35 30 -30 3 -33 0 -74 -78z"/>
<path d="M9376 4556 c-33 -32 -34 -75 -3 -104 46 -43 127 -15 127 44 0 30 -38
72 -72 80 -21 4 -33 0 -52 -20z"/>
<path d="M3634 4202 c-53 -42 -59 -109 -15 -153 33 -33 75 -38 120 -15 55 29
69 115 25 160 -32 31 -97 36 -130 8z"/>
<path d="M3880 3980 c-11 -11 -20 -32 -20 -46 0 -34 197 -421 224 -439 28 -20
49 -19 80 6 40 32 34 67 -34 196 -37 68 -56 113 -48 113 7 0 70 -14 140 -32
141 -36 175 -34 192 13 11 34 1 76 -22 88 -25 13 -445 121 -471 121 -12 0 -30
-9 -41 -20z"/>
<path d="M8699 4127 c-67 -45 -65 -137 3 -170 32 -16 43 -17 74 -7 84 28 99
139 24 183 -38 23 -61 21 -101 -6z"/>
<path d="M9120 4099 c-100 -11 -201 -30 -222 -41 -22 -11 -23 -51 -3 -68 12
-10 40 -9 143 4 70 9 158 20 196 24 53 5 72 12 82 27 12 18 11 24 -2 43 -17
25 -54 27 -194 11z"/>
<path d="M8689 3844 c-25 -59 -63 -192 -90 -317 -24 -111 -19 -130 34 -125 30
3 30 3 68 153 20 83 48 182 63 221 14 39 26 74 26 77 0 15 -34 37 -56 37 -20
0 -29 -9 -45 -46z"/>
<path d="M4469 3489 c-16 -30 5 -46 124 -99 l97 -44 0 -66 c0 -122 69 -200
177 -200 54 0 86 16 136 68 l39 40 115 -56 c123 -58 148 -60 148 -11 0 20 -18
31 -135 86 -74 34 -138 62 -143 63 -4 0 -33 -27 -65 -60 -48 -49 -65 -60 -91
-60 -82 0 -118 55 -106 164 5 52 3 64 -12 78 -21 19 -238 118 -259 118 -7 0
-18 -10 -25 -21z"/>
<path d="M4858 3441 c-27 -24 -33 -36 -33 -70 0 -56 30 -86 86 -86 83 0 120
96 60 156 -37 37 -72 37 -113 0z"/>
<path d="M8020 3476 c-186 -43 -332 -134 -409 -255 -45 -70 -75 -164 -61 -190
12 -23 52 -28 67 -8 5 6 15 32 22 57 57 198 290 332 553 316 90 -5 99 -4 108
14 13 24 0 54 -27 65 -33 14 -197 14 -253 1z"/>
<path d="M8105 3378 c-32 -18 -44 -40 -45 -79 0 -72 84 -106 135 -54 38 37 37
88 -1 123 -27 24 -58 28 -89 10z"/>
<path d="M5552 3268 c-30 -30 -5 -68 44 -68 43 0 159 -36 210 -65 85 -49 142
-142 127 -204 -10 -42 -42 -80 -86 -103 -56 -29 -198 -36 -279 -15 -66 17 -92
7 -86 -33 4 -31 61 -49 183 -57 204 -13 345 82 345 232 0 139 -121 255 -318
306 -87 22 -123 24 -140 7z"/>
<path d="M6072 2948 c-45 -49 -36 -125 19 -153 36 -19 63 -19 99 0 91 47 52
175 -52 175 -33 0 -50 -6 -66 -22z"/>
<path d="M6832 3118 c-42 -11 -72 -59 -72 -115 0 -111 144 -153 201 -59 56 92
-26 201 -129 174z"/>
<path d="M7192 2981 c-103 -115 -224 -159 -410 -148 -111 6 -206 33 -275 77
-58 37 -72 37 -93 5 -16 -24 -16 -27 2 -46 88 -97 378 -157 558 -115 107 25
191 70 260 140 73 73 95 110 80 134 -6 9 -22 18 -35 20 -19 2 -38 -13 -87 -67z"/>
<path d="M10435 10221 c-31 -14 -129 -116 -405 -421 -201 -221 -370 -412 -377
-424 -17 -29 -16 -105 2 -155 8 -23 34 -69 57 -102 40 -58 41 -61 23 -72 -11
-6 -43 -32 -71 -59 l-50 -47 -37 30 c-21 17 -44 44 -52 59 -35 68 -3 130 50
96 67 -44 121 24 58 73 -76 61 -185 23 -211 -73 -21 -76 33 -186 122 -247 29
-19 37 -32 42 -67 8 -52 43 -97 88 -113 27 -10 36 -21 46 -53 22 -76 79 -154
132 -182 15 -8 50 -14 79 -14 46 0 55 4 90 39 33 32 39 45 39 80 0 57 -24 101
-54 101 -35 0 -49 -23 -42 -66 17 -88 -83 -83 -129 7 -38 73 -38 77 8 100 23
12 57 33 76 47 l34 25 19 -24 c68 -87 93 -110 143 -134 41 -21 65 -26 93 -22
50 7 1010 452 1044 485 69 64 78 205 21 322 -44 93 -500 704 -560 752 -92 73
-198 96 -278 59z m159 -92 c30 -11 77 -40 104 -64 59 -53 464 -604 494 -672
49 -112 28 -252 -43 -289 l-34 -17 32 36 c58 66 66 162 23 263 -18 42 -392
571 -452 640 -61 69 -186 110 -261 85 -27 -9 -107 -89 -352 -352 -301 -324
-365 -400 -365 -443 0 -47 240 -398 388 -565 65 -75 73 -73 491 118 195 88
356 159 358 158 2 -2 -160 -79 -358 -172 -492 -228 -451 -234 -698 103 -87
119 -166 232 -175 249 -24 48 -30 112 -15 150 19 43 675 758 713 777 42 21 85
20 150 -5z m-44 -93 c0 -2 -13 -32 -29 -67 -36 -80 -60 -160 -76 -258 l-12
-76 -17 38 c-42 96 -44 213 -4 291 32 65 46 76 95 76 23 0 43 -2 43 -4z m108
-56 c23 -17 42 -33 42 -37 0 -4 -13 -21 -29 -38 -70 -72 -138 -224 -156 -349
-7 -46 -9 -48 -22 -30 -30 40 13 292 73 424 15 33 32 60 39 60 7 0 31 -14 53
-30z m-322 -148 c0 -67 6 -103 26 -160 85 -236 333 -478 568 -553 l55 -17 -65
-30 c-36 -16 -101 -46 -144 -66 -44 -20 -80 -35 -81 -34 -1 2 -14 22 -29 45
-14 23 -34 47 -45 52 -10 6 -59 13 -107 16 -146 9 -215 35 -277 104 -45 50
-72 134 -63 199 4 26 19 81 33 122 30 88 28 108 -21 170 l-35 44 91 98 c50 54
91 98 92 98 0 0 1 -39 2 -88z m569 -167 c87 -121 169 -241 182 -268 45 -88 40
-212 -9 -238 -29 -16 -110 -3 -188 30 -85 35 -174 97 -261 178 l-69 65 0 57
c0 76 23 168 64 255 34 74 104 163 116 149 4 -4 78 -107 165 -228z m-752 -22
c33 -45 33 -51 0 -132 -21 -52 -26 -83 -27 -146 0 -103 27 -168 96 -230 67
-60 140 -86 258 -92 52 -3 102 -9 111 -14 9 -5 26 -24 38 -44 l20 -35 -37 -18
c-20 -11 -99 -47 -175 -82 l-137 -63 -64 32 c-139 68 -244 173 -307 306 -35
75 -69 202 -69 259 0 17 36 64 123 159 67 75 127 136 132 136 6 0 22 -16 38
-36z m897 -588 c-25 -13 -49 -24 -55 -24 -5 0 10 11 35 24 25 13 50 24 55 24
6 0 -10 -11 -35 -24z m-1193 -133 c47 -65 46 -67 -26 -114 -28 -17 -58 -28
-80 -28 -42 0 -54 7 -70 37 -9 19 -8 30 9 63 20 38 91 100 114 100 6 -1 30
-26 53 -58z"/>
<path d="M2114 10131 c-52 -13 -117 -49 -161 -88 -52 -47 -496 -675 -531 -751
-33 -73 -42 -184 -18 -245 9 -24 31 -57 49 -74 22 -20 187 -98 524 -247 418
-183 499 -216 540 -216 72 0 143 49 206 140 16 25 32 47 34 49 1 2 11 -3 22
-13 10 -9 46 -31 79 -49 l61 -33 -23 -50 c-26 -56 -67 -94 -102 -94 -30 0 -39
16 -39 70 0 39 -3 45 -28 54 -37 13 -58 -8 -64 -66 -14 -123 121 -193 226
-118 48 35 73 72 103 153 11 31 26 57 34 57 19 0 73 48 89 81 8 15 15 40 15
55 0 20 15 41 60 82 94 84 125 164 94 241 -30 76 -103 106 -178 72 -56 -24
-70 -61 -38 -93 20 -20 22 -20 46 -5 37 24 75 22 85 -5 13 -36 -5 -78 -56
-130 l-47 -47 -45 44 c-25 24 -56 52 -69 62 l-22 18 40 59 c63 92 79 191 41
251 -32 50 -754 809 -783 822 -35 17 -105 24 -144 14z m163 -123 c54 -49 659
-692 675 -717 26 -38 24 -126 -5 -182 -12 -24 -89 -138 -170 -252 -164 -230
-203 -267 -282 -267 -31 0 -141 45 -475 193 -239 107 -449 201 -466 210 -20
10 -40 34 -54 63 -30 60 -24 156 12 235 29 62 402 596 455 650 95 99 242 131
310 67z m676 -1135 c75 -58 101 -114 69 -153 -26 -32 -78 -30 -135 3 -65 39
-73 51 -52 84 31 50 66 93 74 93 4 0 24 -12 44 -27z"/>
<path d="M2085 9988 c-22 -11 -54 -32 -72 -45 -41 -31 -436 -586 -470 -659
-35 -78 -41 -159 -15 -210 11 -21 31 -49 44 -61 36 -34 847 -391 905 -399 56
-7 61 -4 140 91 119 144 269 358 320 459 43 84 44 82 -320 470 -177 190 -336
351 -354 360 -44 23 -129 20 -178 -6z m172 -71 c11 -7 147 -145 301 -307 l279
-295 -37 -3 c-20 -2 -122 8 -226 22 -104 13 -233 28 -287 32 -115 8 -107 -1
-138 149 -32 152 -20 282 33 377 23 40 39 45 75 25z m-190 -41 c-37 -95 -40
-258 -9 -386 11 -47 23 -92 27 -101 5 -14 -6 -17 -73 -23 -144 -12 -301 -62
-379 -122 -38 -29 -41 -19 -14 43 24 52 350 515 399 566 37 38 58 48 49 23z
m76 -658 c11 -29 72 -156 134 -282 63 -126 113 -230 111 -231 -9 -7 -746 328
-760 346 -26 31 -23 42 28 89 87 80 228 127 387 129 l78 1 22 -52z m372 27
c105 -14 218 -28 253 -32 51 -5 62 -9 58 -22 -56 -209 -130 -321 -279 -421
l-59 -40 -123 248 c-68 136 -126 257 -130 270 -6 21 -3 22 42 22 26 0 134 -12
238 -25z"/>
<path d="M11395 8747 c-62 -29 -941 -531 -962 -550 -49 -44 -61 -170 -24 -267
12 -30 21 -58 21 -61 0 -4 -15 -10 -34 -13 -18 -4 -55 -17 -82 -31 -56 -28
-66 -24 -95 40 -46 99 6 179 71 110 28 -30 51 -32 74 -6 30 33 -19 104 -87
122 -33 9 -45 7 -85 -13 -103 -52 -110 -191 -17 -314 21 -27 23 -39 18 -86 -6
-62 11 -107 52 -134 22 -14 25 -24 25 -74 0 -67 19 -137 50 -180 26 -37 88
-70 130 -70 69 0 130 61 130 130 0 42 -8 55 -38 64 -30 10 -52 -9 -52 -45 0
-30 -23 -59 -46 -59 -42 0 -89 94 -82 163 3 31 5 32 58 39 30 4 68 11 83 17
16 6 30 11 32 11 2 0 13 -29 25 -64 33 -101 94 -173 160 -189 21 -5 998 99
1109 118 22 4 50 23 80 53 73 73 98 187 67 312 -24 98 -238 743 -265 799 -65
136 -219 222 -316 178z m106 -91 c55 -23 113 -80 146 -143 40 -75 253 -733
252 -775 -1 -29 -2 -27 -9 12 -11 64 -218 696 -246 751 -32 63 -112 134 -169
148 -47 12 -81 8 -127 -16 -42 -21 -33 -6 10 16 44 24 97 26 143 7z m-191 -41
c0 -2 -13 -11 -30 -20 -38 -19 -40 -11 -2 9 31 17 32 18 32 11z m-90 -50 c0
-2 -13 -11 -30 -20 -38 -19 -40 -11 -2 9 31 17 32 18 32 11z m99 -87 c-35
-104 -45 -205 -30 -308 34 -228 178 -477 353 -606 31 -23 54 -44 51 -48 -10
-10 -51 -7 -58 4 -3 5 -22 17 -41 26 -57 27 -130 100 -189 188 -172 259 -222
568 -120 743 14 23 25 48 25 56 0 13 12 24 31 26 3 1 -7 -36 -22 -81z m234 23
c20 -22 42 -52 50 -68 8 -15 61 -171 117 -347 96 -300 102 -323 98 -387 -5
-85 -14 -97 -59 -73 -47 24 -167 146 -218 222 -89 132 -141 287 -141 416 1 89
13 143 52 228 35 77 39 77 101 9z m-403 24 c0 -2 -13 -11 -30 -20 -38 -19 -40
-11 -2 9 31 17 32 18 32 11z m-90 -50 c0 -2 -13 -11 -30 -20 -38 -19 -40 -11
-2 9 31 17 32 18 32 11z m102 -47 c-13 -33 -16 -75 -16 -183 1 -123 4 -151 28
-230 54 -177 149 -347 256 -457 33 -34 59 -63 57 -64 -4 -4 -359 -44 -392 -44
-55 0 -60 17 -30 112 45 140 22 230 -86 343 l-61 64 16 47 c9 26 16 59 16 73
0 40 -34 87 -83 115 -72 43 -62 56 131 168 92 53 170 97 174 97 4 1 0 -18 -10
-41z m-172 7 c0 -2 -18 -14 -40 -25 -22 -11 -40 -18 -40 -15 0 2 17 13 38 24
42 23 42 23 42 16z m-90 -50 c0 -2 -13 -11 -30 -20 -38 -19 -40 -11 -2 9 31
17 32 18 32 11z m-70 -40 c0 -2 -18 -14 -40 -25 -22 -11 -40 -18 -40 -15 0 2
17 13 38 24 42 23 42 23 42 16z m-90 -50 c0 -2 -13 -11 -30 -20 -38 -19 -40
-11 -2 9 31 17 32 18 32 11z m-70 -40 c0 -2 -18 -14 -40 -25 -22 -11 -40 -18
-40 -15 0 2 17 13 38 24 42 23 42 23 42 16z m-117 -71 c-18 -13 -44 -39 -59
-57 l-26 -32 19 35 c10 19 34 45 53 57 44 31 53 29 13 -3z m185 2 c6 -13 35
-37 64 -53 29 -15 54 -36 56 -46 2 -10 -8 -42 -22 -71 -14 -29 -26 -58 -26
-63 0 -6 32 -42 71 -79 123 -120 136 -160 94 -293 -17 -53 -25 -97 -22 -117 5
-27 2 -33 -16 -38 -63 -17 -82 -8 -150 63 -151 161 -214 345 -187 552 7 52 15
100 19 107 8 15 79 60 97 61 6 1 16 -10 22 -23z m-153 -499 c20 -60 51 -144
70 -188 18 -43 30 -79 26 -79 -19 0 -65 113 -135 331 -58 179 -76 248 -75 290
0 50 3 42 39 -96 21 -82 55 -199 75 -258z m-102 19 l25 -74 -26 -11 c-14 -7
-48 -16 -74 -21 -92 -18 -154 34 -114 95 20 30 110 78 158 84 3 1 17 -32 31
-73z m1414 -58 c-3 -7 -5 -2 -5 12 0 14 2 19 5 13 2 -7 2 -19 0 -25z"/>
<path d="M11544 8149 c-22 -11 -44 -48 -44 -73 0 -7 9 -25 21 -40 41 -52 129
-23 129 43 0 55 -59 93 -106 70z"/>
<path d="M1225 8698 c-67 -25 -145 -99 -185 -178 -10 -19 -49 -134 -88 -255
-39 -121 -94 -292 -123 -380 -50 -150 -53 -167 -54 -261 0 -92 2 -105 30 -159
23 -45 42 -66 75 -86 43 -26 68 -29 570 -83 289 -31 541 -56 561 -56 72 0 151
82 189 194 12 37 25 66 30 66 4 0 27 -7 50 -15 23 -8 61 -15 83 -15 l40 0 -6
-62 c-6 -68 -29 -108 -70 -122 -35 -13 -57 7 -57 50 0 37 -26 59 -57 47 -26
-9 -33 -23 -33 -63 0 -71 61 -130 135 -130 99 0 175 105 175 243 0 44 4 54 35
84 39 38 54 91 37 136 -10 25 -7 35 27 87 83 129 79 236 -11 303 -55 41 -149
16 -184 -49 -17 -32 -17 -34 1 -53 24 -28 46 -26 75 4 28 30 51 32 73 7 23
-25 21 -58 -7 -117 -39 -80 -37 -79 -87 -51 -24 13 -61 29 -82 36 -33 10 -38
15 -33 34 35 118 39 150 28 203 -6 30 -19 65 -30 79 -10 15 -214 135 -502 296
-514 287 -530 294 -605 266z m554 -314 c234 -130 437 -246 449 -258 49 -43 67
-111 51 -184 -22 -101 -162 -517 -186 -553 -32 -48 -80 -79 -124 -79 -49 0
-527 54 -508 58 9 1 105 -6 215 -18 109 -11 225 -20 257 -20 90 0 107 14 150
122 68 172 129 369 162 521 17 78 17 78 -6 111 -30 44 -28 43 -480 290 -447
243 -440 241 -535 187 -92 -53 -113 -96 -236 -488 -91 -290 -110 -360 -111
-418 -3 -91 21 -153 76 -200 46 -39 38 -47 -13 -12 -69 46 -107 179 -81 284
23 92 212 668 236 720 31 67 85 126 138 152 84 42 81 43 546 -215z m-192 12
c205 -113 208 -115 208 -148 1 -18 5 -44 9 -58 8 -24 7 -23 -28 8 -47 41 -75
55 -165 82 -322 98 -610 -244 -467 -555 72 -158 264 -259 432 -228 33 6 61 9
62 8 2 -2 -15 -13 -38 -25 -23 -12 -45 -31 -48 -42 -4 -17 -11 -19 -51 -14
-25 4 -136 15 -246 27 -223 23 -246 30 -279 94 -17 32 -21 58 -21 130 0 86 4
104 93 385 101 321 124 369 201 420 78 52 100 47 338 -84z m515 -283 c25 -22
42 -142 35 -253 -9 -158 -67 -288 -182 -406 l-70 -72 -95 10 c-128 13 -129 13
-84 47 91 65 158 160 202 284 24 66 26 86 26 232 1 138 -2 168 -20 217 l-21
58 96 -52 c53 -28 104 -57 113 -65z m-638 69 c-3 -21 -1 -58 6 -82 40 -154
198 -235 343 -175 15 6 17 1 17 -43 0 -57 -20 -121 -56 -175 l-25 -38 -48 50
c-36 36 -62 53 -101 65 -67 20 -83 20 -151 0 -43 -12 -65 -28 -108 -72 l-53
-56 -24 29 c-68 85 -93 213 -60 312 33 98 132 190 229 213 18 5 33 8 35 9 1 1
0 -16 -4 -37z m191 2 c53 -25 113 -82 141 -135 19 -37 -1 -52 -74 -57 -47 -3
-63 0 -91 20 -49 33 -72 69 -78 121 -10 85 11 95 102 51z m730 -472 c76 -37
105 -94 68 -134 -21 -23 -107 -24 -163 -2 -22 9 -40 17 -40 19 0 2 35 107 45
133 5 14 42 8 90 -16z m-785 -21 c19 -10 43 -30 54 -45 18 -23 19 -28 6 -37
-26 -16 -112 -39 -150 -39 -38 0 -140 27 -140 36 0 15 46 68 74 85 40 24 111
25 156 0z m-273 -307 c-3 -3 -12 -4 -19 -1 -8 3 -5 6 6 6 11 1 17 -2 13 -5z
m91 -11 c-10 -2 -28 -2 -40 0 -13 2 -5 4 17 4 22 1 32 -1 23 -4z"/>
<path d="M11348 6986 c-519 -98 -539 -103 -569 -131 -47 -45 -71 -106 -77
-201 l-5 -82 -86 -4 c-47 -3 -90 -1 -96 4 -5 4 -11 36 -13 71 -3 52 -1 66 18
90 30 38 60 33 83 -15 12 -28 23 -38 40 -38 49 0 62 51 27 107 -26 44 -73 67
-123 60 -111 -15 -162 -135 -123 -286 13 -50 12 -57 -5 -85 -24 -40 -25 -112
-1 -151 18 -29 18 -32 0 -82 -26 -74 -24 -159 5 -213 55 -104 193 -114 243
-19 23 45 18 84 -12 98 -22 10 -30 9 -44 -4 -10 -9 -21 -27 -24 -41 -5 -18
-13 -24 -35 -24 -31 0 -45 12 -56 49 -8 25 1 119 13 137 5 8 35 9 95 5 l88 -6
3 -81 c2 -67 8 -93 32 -140 18 -37 40 -65 59 -76 34 -19 1058 -248 1108 -248
84 1 175 82 216 191 22 62 23 78 31 488 9 451 7 491 -35 577 -42 86 -137 157
-205 153 -8 -1 -257 -47 -552 -103z m575 10 c50 -21 105 -91 127 -164 17 -56
20 -92 19 -276 0 -116 -4 -296 -8 -401 -7 -174 -9 -195 -32 -245 -46 -99 -106
-150 -176 -150 -15 0 -174 32 -353 70 -179 39 -386 84 -460 100 -168 35 -179
40 -218 84 -50 58 -55 91 -50 396 4 251 6 279 25 321 31 68 65 95 140 109 35
7 66 10 69 8 2 -3 -14 -8 -38 -12 -48 -8 -134 -52 -142 -72 -29 -76 -33 -687
-5 -733 26 -42 74 -59 289 -105 118 -25 322 -68 452 -96 131 -27 255 -50 276
-50 64 0 124 46 163 126 l34 68 8 280 c4 155 7 342 5 416 -3 123 -6 140 -30
190 -35 72 -74 108 -140 131 -48 17 -50 18 -20 19 18 0 47 -6 65 -14z m-326
-42 c-3 -3 -12 -4 -19 -1 -8 3 -5 6 6 6 11 1 17 -2 13 -5z m-110 -20 c-3 -3
-12 -4 -19 -1 -8 3 -5 6 6 6 11 1 17 -2 13 -5z m-60 -10 c-3 -3 -12 -4 -19 -1
-8 3 -5 6 6 6 11 1 17 -2 13 -5z m453 -18 c47 -31 88 -109 97 -182 5 -33 6
-203 3 -379 -5 -307 -6 -322 -28 -370 -29 -62 -76 -113 -118 -124 -40 -11
-121 3 -146 25 -25 23 -58 117 -58 165 0 49 20 99 60 149 36 45 36 51 9 76
-79 71 -78 203 1 279 33 32 38 53 15 61 -21 9 -62 81 -70 125 -4 20 -2 53 3
73 13 47 66 113 95 119 60 12 103 6 137 -17z m-503 8 c-3 -3 -12 -4 -19 -1 -8
3 -5 6 6 6 11 1 17 -2 13 -5z m-54 -11 c-7 -2 -19 -2 -25 0 -7 3 -2 5 12 5 14
0 19 -2 13 -5z m-50 -10 c-7 -2 -19 -2 -25 0 -7 3 -2 5 12 5 14 0 19 -2 13 -5z
m344 -30 c-35 -61 -31 -152 10 -225 l33 -58 -32 -45 c-54 -76 -51 -184 8 -271
25 -36 25 -37 6 -58 -59 -64 -76 -166 -44 -261 11 -33 19 -61 17 -63 -2 -2
-16 0 -31 5 -26 9 -29 15 -40 89 -21 147 -60 225 -121 240 -61 16 -112 -49
-140 -178 -9 -43 -21 -78 -27 -78 -27 0 -272 54 -281 62 -6 6 -4 13 8 19 24
14 65 97 82 171 48 205 17 427 -72 521 -20 20 -24 30 -16 38 10 10 245 59 284
59 12 0 19 -13 24 -46 19 -127 70 -214 125 -214 65 0 115 79 146 230 17 88 24
100 61 100 l22 0 -22 -37z m-394 20 c-7 -2 -21 -2 -30 0 -10 3 -4 5 12 5 17 0
24 -2 18 -5z m-60 -10 c-7 -2 -19 -2 -25 0 -7 3 -2 5 12 5 14 0 19 -2 13 -5z
m353 -15 c-3 -13 -10 -48 -16 -78 -14 -75 -57 -160 -79 -160 -38 0 -76 75 -87
174 l-6 52 88 16 c49 8 92 16 97 17 4 0 5 -9 3 -21z m-421 2 c-16 -4 -41 -8
-55 -8 -22 0 -22 1 5 8 17 4 41 8 55 8 22 0 22 -1 -5 -8z m-84 -257 c19 -49
23 -78 23 -183 1 -71 -5 -151 -13 -186 -14 -64 -59 -159 -76 -159 -5 0 -25 41
-44 90 -33 85 -35 97 -35 220 -1 134 5 166 56 285 l20 45 23 -27 c13 -15 33
-53 46 -85z m-313 -205 l3 -78 -60 0 c-92 0 -151 33 -151 83 0 48 59 77 150
74 l55 -2 3 -77z m739 -250 c27 -29 52 -104 60 -179 7 -69 11 -67 -102 -42
-84 18 -83 16 -64 105 13 58 30 98 54 122 21 21 28 20 52 -6z"/>
<path d="M864 7061 c-82 -20 -158 -106 -188 -210 -18 -62 -20 -285 -7 -711 9
-291 19 -329 105 -415 91 -91 58 -93 687 45 l544 120 37 39 c45 47 68 120 68
211 l0 67 73 5 c39 3 79 9 88 12 38 16 56 -146 20 -178 -29 -26 -63 -17 -80
21 -18 40 -37 48 -68 27 -21 -13 -24 -21 -19 -47 14 -70 83 -123 146 -111 47
8 99 49 117 93 20 47 19 136 -2 200 -16 50 -16 52 5 97 26 53 22 105 -10 139
-19 21 -20 23 -4 66 8 24 16 76 17 114 1 60 -3 78 -25 117 -44 73 -118 97
-187 60 -37 -20 -71 -73 -71 -110 0 -48 79 -54 89 -6 8 47 47 58 81 24 21 -21
27 -92 14 -159 -6 -29 -9 -32 -33 -25 -14 4 -55 8 -91 9 l-65 2 -6 84 c-4 46
-10 93 -15 104 -17 44 -57 93 -87 109 -24 12 -652 134 -1082 211 -11 2 -34 0
-51 -4z m1055 -256 c32 -10 88 -82 99 -128 6 -23 12 -166 13 -322 2 -272 1
-281 -21 -328 -12 -26 -34 -56 -49 -66 -25 -18 -721 -176 -743 -169 -5 2 132
36 304 76 172 40 329 77 349 82 52 14 102 51 110 80 11 41 10 481 -2 592 -6
57 -17 112 -24 123 -7 12 -30 29 -51 38 -22 9 -210 46 -419 82 -209 36 -413
72 -453 79 -92 17 -138 7 -186 -42 -20 -19 -46 -56 -58 -81 -23 -46 -23 -49
-21 -436 2 -356 4 -396 22 -455 31 -102 107 -179 178 -181 27 0 27 -1 6 -11
-34 -16 -105 15 -148 64 -19 23 -45 67 -57 97 -21 53 -22 77 -28 431 -4 217
-3 398 3 430 18 108 88 202 162 218 31 6 138 -10 516 -79 262 -48 486 -90 498
-94z m-736 49 l167 -27 -5 -96 c-10 -157 -10 -158 -53 -165 -20 -3 -77 -26
-126 -51 -78 -39 -98 -45 -153 -45 -95 0 -143 34 -143 103 0 27 -10 41 -32 50
-41 15 -4 158 55 215 34 33 79 53 107 47 8 -2 90 -16 183 -31z m437 -74 c168
-27 170 -28 170 -48 0 -9 7 -26 15 -36 26 -35 10 -103 -41 -177 -44 -64 -96
-95 -198 -120 l-92 -22 -31 32 c-34 33 -52 38 -86 20 -30 -16 -37 -28 -37 -65
0 -30 19 -55 51 -66 23 -9 76 18 84 42 8 26 33 23 153 -17 86 -29 112 -43 160
-87 67 -61 78 -117 37 -178 -14 -20 -25 -45 -25 -55 0 -15 -26 -24 -162 -55
-89 -21 -163 -36 -164 -35 -1 1 -7 61 -13 132 -6 72 -14 151 -17 176 l-6 46
-39 -9 c-92 -24 -169 34 -169 127 0 67 101 116 168 81 17 -9 33 -13 35 -8 3 4
8 72 11 152 9 195 11 203 44 196 15 -3 83 -15 152 -26z m309 -342 c14 -101 -7
-284 -26 -230 -11 31 -71 98 -115 127 l-46 32 49 49 c27 26 61 72 76 101 l28
53 12 -28 c6 -15 16 -62 22 -104z m302 18 c47 -8 82 -45 77 -82 -4 -39 -53
-65 -133 -72 l-65 -5 0 81 c0 98 -2 97 121 78z m-1365 -41 c46 -31 87 -39 180
-33 71 5 74 4 74 -17 0 -22 -3 -22 -65 -17 -80 6 -147 -12 -192 -51 l-33 -29
0 55 c0 30 -3 69 -6 86 -8 37 -5 38 42 6z m250 -170 c27 -8 68 -28 91 -44 24
-16 63 -32 87 -35 l45 -7 5 -52 c3 -29 9 -89 14 -135 l8 -82 -35 -9 c-20 -5
-100 -24 -179 -41 -121 -27 -147 -30 -177 -20 -68 22 -125 117 -138 227 -4 34
-2 42 14 46 21 6 24 13 34 71 14 84 109 118 231 81z m81 -461 c-3 -3 -12 -4
-19 -1 -8 3 -5 6 6 6 11 1 17 -2 13 -5z"/>
<path d="M2325 5516 c-48 -21 -77 -60 -82 -109 -6 -52 15 -80 56 -75 19 2 27
9 29 28 6 52 13 69 32 75 47 15 99 -60 100 -141 l0 -42 -67 -17 c-108 -26
-102 -28 -133 48 -36 87 -68 128 -124 157 l-45 24 -553 -73 c-304 -40 -564
-79 -578 -86 -33 -17 -73 -61 -96 -105 -15 -28 -19 -56 -18 -145 l1 -110 136
-390 c108 -306 145 -402 175 -445 66 -93 171 -150 251 -135 47 9 946 537 988
580 58 60 65 147 23 269 -10 31 -16 57 -12 59 4 3 25 10 47 17 22 7 55 21 73
32 39 24 51 17 81 -46 49 -99 -3 -181 -69 -111 -28 29 -57 29 -76 0 -29 -44
45 -115 119 -115 148 0 183 182 64 338 -21 28 -23 37 -14 62 16 41 -5 101 -48
139 -32 28 -35 35 -35 88 0 111 -36 183 -110 221 -50 25 -73 27 -115 8z m-135
-250 c0 -1 41 -120 90 -265 50 -146 90 -280 90 -300 0 -52 -14 -27 -40 69 -35
133 -103 335 -154 452 -25 59 -46 111 -46 114 0 4 14 -10 30 -31 17 -21 30
-38 30 -39z m-250 8 c-42 -48 -75 -118 -90 -187 l-12 -58 -60 73 c-81 99 -121
158 -113 166 8 9 287 50 298 44 4 -2 -6 -19 -23 -38z m-793 -10 c-3 -3 -12 -4
-19 -1 -8 3 -5 6 6 6 11 1 17 -2 13 -5z m-82 -16 c-65 -23 -115 -94 -130 -184
-6 -37 3 -113 19 -169 4 -11 -1 -4 -10 15 -21 44 -24 170 -5 223 24 69 86 126
136 126 14 -1 11 -4 -10 -11z m504 -30 c11 -24 62 -92 112 -153 223 -269 283
-415 229 -560 -12 -33 -23 -72 -23 -88 -2 -23 -17 -36 -107 -91 -57 -36 -106
-63 -108 -62 -1 2 5 32 14 67 21 83 13 173 -25 279 -40 109 -104 214 -244 399
-65 86 -125 168 -133 183 l-13 26 87 12 c71 10 139 21 184 29 3 0 16 -18 27
-41z m514 -20 c56 -69 94 -138 123 -223 24 -71 27 -94 27 -205 -1 -69 -5 -138
-10 -155 -9 -28 -32 -45 -175 -129 l-47 -27 10 33 c14 46 14 174 -1 228 -7 25
-25 71 -41 104 -51 103 -37 265 32 369 17 26 35 47 39 47 5 0 24 -19 43 -42z
m-896 -40 c11 -24 58 -90 103 -148 l82 -105 -6 -74 c-13 -154 -83 -386 -131
-431 l-24 -23 -11 28 c-75 198 -183 521 -187 562 -10 97 29 192 91 219 49 21
61 17 83 -28z m1346 -39 c17 -24 18 -30 6 -55 -15 -30 -130 -97 -158 -92 -12
3 -66 136 -58 144 18 18 82 33 131 31 51 -2 62 -6 79 -28z m-1448 -584 c52
-147 108 -290 122 -318 34 -61 90 -111 157 -137 42 -17 45 -19 16 -14 -75 14
-151 77 -193 161 -21 41 -207 563 -207 580 0 19 19 -29 105 -272z m412 190
c42 -71 46 -98 28 -163 -32 -108 -126 -254 -182 -282 -15 -8 -35 -20 -44 -28
-15 -11 -19 -10 -33 10 -21 30 -21 34 12 47 57 24 122 169 163 365 12 58 23
105 25 103 1 -1 15 -25 31 -52z m852 -107 c-15 -30 -40 -58 -51 -58 -8 0 52
79 60 80 1 0 -3 -10 -9 -22z m-769 -299 c-17 -53 -19 -71 -11 -88 11 -19 7
-24 -36 -51 -52 -33 -124 -41 -158 -16 -18 13 -18 14 2 20 33 11 134 124 178
201 l40 69 3 -33 c2 -19 -6 -64 -18 -102z"/>
<path d="M10417 5513 c-72 -11 -137 -125 -137 -239 0 -46 -4 -56 -34 -86 -42
-42 -53 -79 -38 -132 9 -36 8 -44 -8 -61 -35 -38 -80 -148 -80 -195 0 -85 69
-160 145 -160 40 0 90 32 110 70 15 29 15 34 0 56 -21 32 -49 30 -75 -6 -12
-16 -28 -30 -36 -30 -23 0 -54 38 -54 68 0 29 41 125 59 136 6 4 27 -2 48 -13
21 -10 57 -24 81 -31 23 -7 42 -15 42 -17 0 -2 -9 -36 -20 -75 -31 -112 -22
-184 28 -238 15 -15 239 -147 497 -291 l470 -264 65 0 c75 0 135 29 188 89 59
67 81 123 203 506 98 310 123 400 127 461 5 93 -14 168 -59 222 -58 70 4 59
-808 147 -206 23 -386 38 -400 35 -66 -17 -129 -92 -162 -195 l-22 -67 -59 19
c-33 10 -73 18 -89 18 -28 0 -29 2 -29 43 1 83 57 159 105 141 16 -6 29 -39
21 -52 -8 -14 24 -52 44 -52 10 0 26 8 35 17 24 24 15 96 -16 130 -25 27 -79
54 -101 52 -7 -1 -26 -4 -41 -6z m558 -133 c120 -16 127 -18 45 -12 -161 12
-265 9 -285 -8 -39 -32 -140 -308 -200 -544 -37 -147 -43 -164 -49 -133 -9 46
1 84 85 349 78 244 93 280 136 320 55 53 69 54 268 28z m203 -27 c-10 -2 -28
-2 -40 0 -13 2 -5 4 17 4 22 1 32 -1 23 -4z m85 -10 c-7 -2 -19 -2 -25 0 -7 3
-2 5 12 5 14 0 19 -2 13 -5z m-106 -53 c150 -16 277 -31 283 -35 17 -10 11
-101 -10 -158 -11 -29 -42 -81 -70 -115 l-50 -62 28 -6 c58 -12 84 -29 140
-88 110 -118 164 -248 161 -388 -3 -133 -67 -226 -179 -258 -41 -12 -72 -1
-190 65 l-100 56 32 27 c18 15 41 36 51 47 30 33 78 144 84 196 5 45 4 49 -15
49 -15 0 -23 -8 -28 -27 -28 -131 -67 -196 -139 -239 -36 -21 -48 -23 -65 -14
-20 11 -20 13 23 50 59 52 110 173 87 209 -16 26 -37 3 -54 -61 -19 -71 -37
-97 -87 -127 -42 -26 -49 -26 -94 0 l-35 21 31 36 c120 136 110 396 -21 589
-40 59 -119 130 -163 146 -11 4 89 117 103 117 3 0 128 -14 277 -30z m690 -43
c47 -44 68 -107 67 -197 -1 -66 -14 -114 -108 -410 -59 -184 -117 -355 -129
-380 -27 -58 -91 -126 -139 -151 -39 -20 -113 -25 -137 -10 -10 6 0 8 27 4 61
-8 121 18 177 78 25 27 55 69 65 92 10 23 64 188 121 367 112 358 123 417 95
512 -13 44 -26 65 -63 98 -26 22 -38 38 -27 34 10 -4 34 -21 51 -37z m-303
-23 c9 -33 -6 -76 -55 -165 -21 -40 -39 -73 -39 -73 0 -1 41 0 90 2 110 5 160
-11 219 -69 34 -34 38 -44 31 -67 -4 -15 -29 -94 -55 -177 l-48 -150 -14 55
c-17 66 -51 144 -87 197 -36 52 -125 142 -159 159 l-27 15 31 45 c41 61 69
142 69 204 0 42 3 50 19 50 12 0 21 -9 25 -26z m161 6 c80 -18 135 -122 122
-232 -4 -28 -8 -53 -11 -55 -3 -3 -17 7 -33 22 -41 40 -108 67 -179 73 l-62 5
25 55 c13 30 25 75 26 99 2 42 3 43 37 43 19 0 53 -5 75 -10z m-887 -113 c149
-107 222 -397 141 -560 -22 -43 -66 -97 -81 -97 -11 0 -227 120 -233 130 -3 5
9 11 26 15 44 10 116 79 129 124 32 116 -9 253 -88 293 -46 23 -46 21 -21 70
40 79 48 81 127 25z m-332 8 l33 -14 -23 -68 c-26 -77 -36 -83 -102 -58 -69
26 -112 92 -86 131 24 36 104 40 178 9z m224 -163 c49 -49 66 -170 34 -238
-16 -34 -68 -74 -96 -74 -28 0 -38 175 -17 283 14 67 33 74 79 29z"/>
<path d="M9906 4385 c-21 -7 -52 -26 -68 -42 -29 -26 -88 -134 -88 -160 0 -6
-19 -22 -42 -35 -51 -28 -88 -80 -88 -124 0 -26 -7 -36 -34 -53 -45 -28 -104
-95 -122 -137 -32 -77 -7 -166 55 -199 80 -41 195 8 170 73 -12 31 -34 37 -64
18 -65 -43 -109 9 -70 83 8 16 33 45 56 64 l41 36 29 -33 c15 -18 46 -45 68
-60 l40 -28 -34 -47 c-53 -73 -75 -129 -75 -192 0 -47 5 -63 29 -95 69 -92
719 -800 751 -819 25 -14 53 -20 95 -20 76 0 171 44 231 107 68 71 505 667
533 727 50 110 38 252 -27 313 -41 39 -1012 488 -1055 488 -72 0 -141 -45
-209 -137 l-39 -54 -32 28 c-18 15 -51 37 -75 47 -48 22 -49 26 -23 81 34 74
93 108 133 76 19 -16 20 -21 10 -51 -15 -41 -2 -60 40 -60 24 0 32 6 44 36 29
69 -12 154 -84 174 -46 12 -48 12 -96 -5z m830 -426 c247 -116 461 -222 476
-237 15 -14 33 -41 39 -60 17 -51 5 -152 -26 -214 -32 -67 -432 -612 -483
-657 -57 -51 -127 -81 -194 -81 -31 0 -64 3 -73 6 -29 11 -685 742 -702 781
-17 43 -12 106 12 153 9 17 89 128 179 247 148 197 195 248 246 266 48 17 92
0 526 -204z m-893 94 c44 -22 87 -55 87 -65 0 -18 -81 -118 -95 -118 -23 0
-113 92 -120 123 -5 18 -2 35 9 52 20 30 70 34 119 8z"/>
<path d="M10189 4113 c-84 -76 -330 -408 -393 -531 -16 -32 -16 -35 7 -85 17
-36 118 -156 333 -397 285 -317 313 -345 354 -357 60 -18 134 -2 197 40 66 44
502 622 526 698 32 98 15 203 -39 250 -16 13 -494 243 -801 386 -96 44 -131
43 -184 -4z m482 -204 c173 -83 342 -164 377 -181 81 -39 102 -70 102 -155 0
-36 -7 -81 -17 -105 -18 -44 -347 -493 -412 -561 -74 -79 -194 -114 -254 -74
-15 10 -149 153 -297 318 -298 331 -281 302 -255 424 30 139 112 275 223 367
46 38 186 117 208 118 6 0 153 -68 325 -151z"/>
<path d="M10325 3975 c-14 -13 -25 -35 -25 -48 0 -31 39 -67 73 -67 61 0 89
76 44 118 -30 29 -62 28 -92 -3z"/>
<path d="M10673 3814 c-64 -65 -133 -88 -268 -88 -126 0 -207 19 -276 65 -40
26 -44 27 -61 12 -10 -9 -18 -20 -18 -24 0 -4 20 -27 45 -51 57 -56 111 -146
136 -231 30 -98 24 -223 -14 -296 -21 -41 -25 -57 -16 -67 18 -21 28 -17 78
30 83 76 212 108 357 86 88 -13 141 -32 196 -68 31 -20 41 -22 53 -12 24 20
18 36 -38 92 -132 133 -184 366 -114 509 31 65 33 75 11 83 -22 9 -25 7 -71
-40z m-20 -157 c-7 -102 19 -207 77 -314 22 -40 37 -73 35 -73 -2 0 -15 4 -29
10 -14 5 -63 14 -110 20 -100 14 -200 1 -281 -35 l-50 -22 3 87 c5 106 -13
186 -66 290 -20 41 -38 78 -40 81 -1 4 21 0 49 -7 130 -34 277 -26 367 20 26
13 48 24 48 25 1 0 -1 -36 -3 -82z"/>
<path d="M10926 3676 c-49 -48 -23 -116 44 -116 88 0 94 115 8 136 -21 4 -33
0 -52 -20z"/>
<path d="M9967 3532 c-48 -53 13 -140 77 -111 24 11 46 47 46 74 0 47 -90 74
-123 37z"/>
<path d="M10425 3025 c-14 -13 -25 -33 -25 -45 0 -29 44 -70 75 -70 34 0 65
33 65 70 0 64 -70 91 -115 45z"/>
<path d="M2860 4309 c-65 -26 -101 -100 -80 -164 14 -42 33 -58 60 -50 29 9
42 38 31 68 -12 30 10 67 39 67 30 0 81 -50 106 -105 l24 -50 -48 -24 c-26
-13 -61 -34 -78 -47 l-31 -24 -46 59 c-53 68 -119 111 -182 119 -39 4 -60 -3
-172 -57 -70 -34 -299 -144 -508 -244 l-380 -183 -30 -49 c-27 -43 -30 -57
-30 -129 0 -70 4 -90 31 -146 35 -72 492 -685 552 -738 89 -81 226 -115 306
-77 26 12 143 138 399 427 199 225 368 424 376 441 27 64 -1 159 -76 257 l-35
45 24 15 c13 8 44 35 70 61 l48 46 40 -37 c22 -20 47 -53 55 -74 15 -35 15
-40 0 -62 -18 -28 -32 -30 -63 -8 -32 22 -65 14 -76 -18 -12 -35 11 -63 66
-80 77 -23 146 20 168 103 20 74 -25 166 -114 229 -29 21 -46 41 -46 54 0 43
-40 104 -82 125 -35 17 -46 31 -78 98 -41 87 -88 136 -147 152 -45 13 -60 13
-93 0z m-251 -243 c-2 -2 -17 -6 -34 -10 -22 -5 -26 -4 -15 4 14 9 59 15 49 6z
m162 -73 c57 -60 320 -413 335 -450 8 -18 14 -42 14 -54 0 -15 -23 14 -66 81
-78 125 -205 294 -304 408 -56 64 -66 80 -44 69 16 -9 45 -33 65 -54z m-261
37 c-19 -11 -39 -19 -45 -19 -5 0 6 8 25 19 19 11 40 19 45 19 6 0 -6 -8 -25
-19z m628 -56 c48 -34 8 -128 -76 -176 l-30 -18 -47 63 -46 62 28 23 c38 30
103 62 128 62 11 0 31 -7 43 -16z m-516 -35 c196 -100 317 -258 363 -474 8
-38 15 -79 15 -90 0 -12 -67 -94 -162 -200 -88 -99 -164 -181 -167 -183 -4 -1
-12 26 -18 60 -39 206 -273 480 -554 650 l-61 37 174 83 c95 46 207 99 248
119 81 39 82 39 162 -2z m-604 -280 c43 -19 166 -100 214 -144 15 -13 26 -30
23 -37 -3 -7 -9 -53 -15 -102 -7 -68 -16 -101 -40 -142 -16 -30 -30 -60 -30
-68 0 -21 27 -38 48 -32 33 11 83 124 94 215 l11 82 22 -21 c19 -18 21 -26 14
-68 -4 -26 -12 -75 -18 -110 -5 -35 -26 -96 -47 -137 -31 -62 -35 -77 -24 -90
45 -55 120 63 150 238 7 37 13 67 15 67 1 0 14 -18 28 -39 l26 -40 -18 -53
c-22 -64 -58 -137 -112 -225 -46 -74 -48 -106 -7 -111 24 -3 32 6 90 105 35
59 72 127 83 151 18 42 19 43 31 20 19 -39 34 -120 31 -172 -3 -45 -10 -57
-73 -129 -38 -44 -82 -88 -99 -98 -55 -34 -133 -21 -219 39 -45 30 -435 546
-461 609 -9 21 -18 62 -21 93 -4 45 -1 63 18 100 20 39 34 50 108 86 91 45
101 46 178 13z m-361 -66 c-18 -30 -22 -53 -22 -113 1 -65 0 -70 -8 -37 -12
48 -2 114 23 155 11 18 22 32 25 32 2 0 -6 -17 -18 -37z m1463 -167 c0 -14
-11 -38 -25 -53 l-26 -28 21 35 c11 19 20 43 20 53 0 9 2 17 5 17 3 0 5 -11 5
-24z m-1446 -93 c9 -18 14 -33 12 -33 -6 0 -36 55 -36 66 0 11 5 3 24 -33z
m1366 -26 c0 -2 -10 -12 -22 -23 l-23 -19 19 23 c18 21 26 27 26 19z m-1314
-54 c15 -20 23 -33 16 -29 -13 8 -56 66 -49 66 3 0 17 -17 33 -37z m1234 -36
c0 -2 -10 -12 -22 -23 l-23 -19 19 23 c18 21 26 27 26 19z m-1189 -24 c13 -16
12 -17 -3 -4 -17 13 -22 21 -14 21 2 0 10 -8 17 -17z m30 -40 c13 -16 12 -17
-3 -4 -10 7 -18 15 -18 17 0 8 8 3 21 -13z m30 -40 c13 -16 12 -17 -3 -4 -17
13 -22 21 -14 21 2 0 10 -8 17 -17z m1049 14 c0 -2 -12 -14 -27 -28 l-28 -24
24 28 c23 25 31 32 31 24z m-1019 -54 c13 -16 12 -17 -3 -4 -10 7 -18 15 -18
17 0 8 8 3 21 -13z m939 -36 c0 -2 -15 -16 -32 -33 l-33 -29 29 33 c28 30 36
37 36 29z m-80 -90 c0 -2 -15 -16 -32 -33 l-33 -29 29 33 c28 30 36 37 36 29z
m-80 -90 c0 -2 -15 -16 -32 -33 l-33 -29 29 33 c28 30 36 37 36 29z m-80 -90
c0 -2 -17 -19 -37 -38 l-38 -34 34 38 c33 34 41 42 41 34z m-96 -108 c-10 -12
-31 -27 -46 -35 -29 -15 -111 -18 -143 -4 -13 5 0 6 32 3 56 -6 130 15 153 43
7 7 15 14 18 14 3 0 -3 -9 -14 -21z"/>
<path d="M2329 3751 c-20 -20 -29 -39 -29 -61 0 -43 47 -90 90 -90 45 0 90 47
90 93 0 80 -93 115 -151 58z"/>
<path d="M2679 3681 c-46 -47 -37 -106 22 -137 39 -20 82 -11 109 23 27 35 25
75 -6 112 -35 42 -84 43 -125 2z"/>
<path d="M2662 3350 c-34 -14 -57 -75 -41 -112 15 -36 45 -58 82 -58 41 0 67
17 83 56 12 29 12 39 0 68 -22 52 -67 68 -124 46z"/>
<path d="M9097 3386 c-50 -19 -101 -58 -140 -110 -27 -37 -38 -44 -75 -49 -49
-5 -95 -42 -116 -93 -10 -23 -24 -33 -57 -43 -148 -43 -230 -173 -173 -273 38
-65 139 -87 187 -40 36 37 -5 92 -55 73 -57 -21 -79 43 -33 93 24 26 97 65
123 66 6 0 12 -6 12 -12 0 -7 19 -42 41 -77 l41 -65 -29 -20 c-99 -72 -153
-149 -153 -220 0 -28 47 -141 176 -425 97 -212 198 -433 224 -491 55 -122 99
-174 162 -191 64 -17 165 -6 232 24 67 31 683 474 739 532 21 22 52 68 69 102
27 55 30 70 26 131 -2 42 -10 79 -21 95 -19 30 -797 746 -830 764 -12 7 -47
12 -77 12 -63 1 -118 -21 -191 -74 l-48 -36 -30 45 c-17 24 -44 55 -61 69
l-30 26 31 36 c38 43 78 65 117 65 47 0 70 -43 37 -70 -18 -15 -20 -51 -3 -68
21 -21 56 -13 78 18 82 116 -36 257 -173 206z m-147 -261 c29 -15 100 -94 100
-112 0 -5 -27 -31 -59 -56 l-60 -46 -27 32 c-57 67 -72 153 -32 181 28 20 41
20 78 1z m475 -45 c35 -13 758 -682 773 -715 28 -60 6 -157 -53 -236 -39 -55
-596 -467 -684 -507 -62 -29 -163 -40 -213 -23 -19 6 -46 24 -60 39 -24 25
-420 873 -434 928 -9 36 13 106 47 147 37 45 447 344 496 362 46 17 93 18 128
5z"/>
<path d="M9255 2999 c-220 -136 -470 -330 -481 -374 -3 -14 -3 -41 0 -59 7
-35 374 -851 402 -894 9 -13 36 -33 62 -44 61 -27 158 -21 228 14 62 31 575
400 626 450 85 84 118 214 73 284 -29 45 -674 642 -717 665 -59 30 -85 25
-193 -42z m515 -323 c162 -151 305 -289 318 -307 42 -61 18 -163 -57 -239 -40
-40 -530 -400 -545 -400 -3 0 -6 32 -6 70 0 39 4 70 10 70 5 0 39 28 75 61 48
45 75 82 103 137 36 74 37 79 37 187 0 105 -2 114 -33 177 -106 215 -361 278
-622 152 l-73 -35 -43 17 -44 17 22 36 c105 174 258 281 459 320 102 20 78 36
399 -263z m-295 -108 c224 -117 254 -414 59 -598 -53 -50 -74 -61 -74 -37 0 6
-16 49 -35 95 -65 158 -219 362 -338 447 -31 22 -56 43 -57 46 0 8 92 46 157
64 30 9 84 13 143 12 80 -3 103 -7 145 -29z m-530 -62 c149 -69 323 -262 416
-460 47 -100 69 -189 69 -277 0 -76 -3 -79 -93 -79 -67 0 -114 24 -137 71 -71
137 -340 744 -336 755 7 19 23 17 81 -10z"/>
<path d="M9313 2474 c-15 -24 -15 -29 -2 -53 27 -49 109 -34 109 20 0 39 -19
59 -55 59 -26 0 -39 -6 -52 -26z"/>
<path d="M9492 2304 c-43 -30 -20 -104 33 -104 53 0 76 74 33 104 -12 9 -27
16 -33 16 -6 0 -21 -7 -33 -16z"/>
<path d="M8977 2333 c-17 -16 -3 -35 56 -74 85 -57 134 -106 162 -159 23 -46
26 -54 45 -127 8 -32 16 -43 30 -43 25 0 26 22 4 98 -35 119 -84 184 -201 263
-73 49 -84 54 -96 42z"/>
<path d="M3714 3336 c-17 -8 -41 -27 -53 -42 -31 -40 -26 -131 9 -169 28 -30
40 -31 71 -6 24 20 24 20 7 51 -25 43 -22 68 6 81 38 18 76 2 130 -52 l49 -49
-26 -20 c-14 -11 -42 -43 -62 -70 l-36 -49 -52 35 c-92 63 -173 84 -235 61
-50 -18 -814 -740 -842 -795 -45 -88 -12 -220 79 -312 66 -67 684 -499 756
-529 85 -35 202 -36 263 -1 24 13 51 38 62 55 22 36 437 984 446 1019 15 61
-41 156 -132 223 l-62 45 39 60 c21 33 41 69 44 79 8 23 28 19 92 -17 47 -27
63 -50 63 -88 0 -31 -26 -47 -58 -35 -50 19 -91 -36 -54 -73 49 -50 152 -26
188 44 52 101 -18 215 -164 264 -42 15 -57 25 -67 49 -21 49 -59 77 -112 83
-43 4 -52 10 -88 56 -77 97 -180 137 -261 102z m352 -254 c27 -17 36 -52 23
-90 -13 -40 -52 -107 -68 -117 -10 -6 -131 73 -131 85 0 4 14 26 30 49 46 64
112 96 146 73z m-399 -71 c50 -23 431 -291 473 -333 43 -42 63 -86 63 -133 -1
-50 -387 -926 -426 -966 -54 -56 -169 -60 -279 -11 -43 19 -519 350 -548 380
-13 14 -13 15 0 5 244 -171 515 -351 554 -368 28 -13 72 -27 98 -30 61 -9 145
15 179 52 15 16 101 204 208 453 161 378 181 432 181 480 l0 55 -83 66 c-120
97 -224 171 -329 238 -175 110 -204 118 -270 78 -57 -35 -689 -658 -705 -694
-33 -81 8 -196 100 -279 l52 -47 -47 33 c-113 79 -171 231 -119 315 26 42 714
697 748 712 41 18 102 15 150 -6z m-92 -136 c28 -4 53 -9 56 -11 4 -2 -26 -37
-65 -76 -40 -40 -91 -101 -115 -136 -48 -71 -101 -178 -101 -204 0 -29 -14
-21 -61 35 -61 70 -89 112 -89 130 0 8 62 74 137 146 116 112 141 131 163 127
14 -3 48 -8 75 -11z m322 -145 l58 -46 -1 -65 c-2 -111 -93 -276 -216 -387
l-25 -22 5 78 c5 95 -8 142 -49 177 -41 34 -117 34 -194 1 -66 -30 -68 -23
-25 60 60 112 179 247 253 283 l41 20 48 -26 c26 -14 74 -47 105 -73z m163
-202 c16 -29 30 -60 30 -68 0 -9 -31 -88 -69 -175 l-69 -160 -73 1 c-41 1 -87
6 -102 12 l-28 12 36 31 c84 74 214 279 231 367 4 18 8 32 10 32 2 0 17 -24
34 -52z m-900 12 c19 -36 108 -137 154 -175 l45 -37 68 41 c132 78 201 79 224
1 10 -33 9 -58 -4 -137 -8 -54 -13 -101 -11 -105 9 -15 171 -70 221 -75 29 -3
53 -9 53 -13 0 -22 -143 -347 -162 -367 -63 -67 -207 -52 -327 35 l-42 31 39
20 c50 25 133 116 161 176 43 92 37 180 -12 173 -19 -3 -23 -11 -28 -64 -10
-102 -71 -184 -178 -238 l-48 -25 -85 59 -84 59 7 61 c13 112 95 232 170 247
37 7 53 33 36 58 -11 14 -19 15 -51 6 -104 -28 -203 -152 -222 -278 -3 -24 -9
-43 -13 -43 -3 1 -36 23 -73 50 -121 90 -176 207 -133 289 14 28 263 270 277
271 4 0 12 -9 18 -20z"/>
<path d="M7932 2695 c-30 -14 -65 -34 -78 -44 -20 -16 -35 -18 -78 -14 -60 6
-106 -12 -132 -52 -14 -21 -24 -25 -68 -25 -115 -1 -200 -40 -236 -110 -51
-100 9 -200 120 -200 34 0 42 4 50 26 15 39 -3 64 -46 64 -27 0 -37 5 -45 24
-23 49 31 93 126 103 l53 6 8 -49 c4 -27 13 -67 21 -88 7 -22 12 -40 11 -41
-2 -1 -35 -14 -74 -29 -85 -32 -146 -81 -168 -136 -15 -39 -14 -60 49 -590 39
-336 70 -561 79 -578 20 -39 54 -68 111 -94 40 -18 67 -23 140 -23 89 0 95 2
488 133 316 107 409 142 457 173 93 62 149 166 136 249 -7 44 -535 975 -571
1007 -13 12 -48 27 -78 33 -46 11 -64 10 -133 -8 -43 -11 -86 -23 -94 -26 -11
-4 -20 8 -33 51 -10 31 -27 69 -38 84 l-20 28 46 26 c80 48 165 43 165 -9 0
-12 -11 -33 -25 -46 -30 -28 -32 -51 -6 -74 25 -23 52 -14 90 30 25 28 31 44
31 81 0 123 -125 180 -258 118z m-142 -155 c24 -13 65 -82 78 -132 l10 -37
-74 -25 -75 -25 -10 26 c-5 14 -14 46 -20 71 -20 90 29 155 91 122z m450 -202
c26 -18 88 -118 281 -458 218 -383 248 -440 248 -479 2 -83 -63 -171 -161
-222 -20 -10 -193 -70 -385 -134 -312 -103 -357 -115 -420 -115 -110 0 -189
38 -218 103 -18 40 -128 958 -122 1014 6 53 37 96 94 130 25 14 152 61 282
104 193 63 248 78 302 78 53 1 73 -4 99 -21z"/>
<path d="M8106 2299 c-206 -50 -542 -174 -582 -215 -13 -12 -26 -39 -30 -60
-9 -48 100 -934 120 -972 32 -62 114 -102 208 -103 54 -1 112 15 403 111 187
62 358 122 381 135 54 32 119 103 134 150 7 20 10 54 7 75 -3 24 -81 170 -222
416 -119 208 -228 396 -242 416 -20 29 -78 71 -95 67 -1 0 -39 -9 -82 -20z
m-60 -124 c38 -58 28 -154 -25 -237 -26 -40 -102 -111 -148 -137 -38 -21 30
-119 116 -168 148 -84 204 -120 212 -135 7 -13 0 -30 -31 -70 -22 -29 -47 -73
-55 -97 -21 -62 -19 -148 4 -194 10 -20 16 -39 12 -41 -3 -2 -58 -20 -121 -41
-101 -33 -123 -36 -183 -32 -77 7 -135 34 -160 76 -11 19 -27 112 -47 275 -16
136 -30 255 -30 265 0 12 11 23 28 29 113 39 196 228 160 362 -9 30 -19 63
-23 73 -6 14 3 22 51 43 57 25 156 52 201 53 14 1 29 -9 39 -24z m200 3 c17
-9 71 -94 174 -276 l148 -262 -36 -19 c-51 -27 -97 -77 -123 -136 -30 -67 -38
-195 -15 -249 9 -22 14 -42 10 -45 -3 -3 -53 -22 -111 -42 l-105 -36 -20 31
c-15 25 -18 45 -16 102 3 64 7 77 43 129 64 92 66 98 54 133 -11 33 -58 68
-183 137 -72 40 -146 100 -146 119 0 6 21 28 47 49 124 100 178 238 138 351
l-14 39 65 -6 c36 -4 76 -12 90 -19z m-528 -123 c7 -14 12 -61 12 -103 0 -93
-27 -160 -84 -210 -32 -28 -66 -42 -66 -27 0 2 -7 55 -16 117 l-15 112 69 68
c38 38 74 68 79 68 5 0 15 -11 21 -25z m916 -527 c19 -35 38 -75 41 -90 9 -36
-23 -105 -69 -150 -37 -36 -113 -78 -140 -78 -24 0 -39 66 -34 149 5 92 42
169 98 207 52 36 65 31 104 -38z"/>
<path d="M7820 1370 c-27 -27 -25 -66 5 -95 30 -30 54 -31 89 -4 30 24 34 63
10 97 -20 29 -76 30 -104 2z"/>
<path d="M8175 1875 c-41 -40 -30 -92 25 -115 28 -11 34 -11 58 7 39 29 42 83
6 112 -35 27 -59 27 -89 -4z"/>
<path d="M4825 2680 c-56 -28 -80 -65 -80 -120 0 -56 24 -95 70 -117 33 -16
36 -15 55 2 27 25 25 39 -10 75 -16 17 -30 35 -30 40 0 20 41 50 68 50 34 0
130 -44 138 -63 3 -8 -4 -29 -15 -48 -10 -19 -25 -53 -32 -76 -7 -24 -13 -43
-14 -43 -1 0 -37 9 -81 21 -94 24 -166 19 -216 -15 -33 -22 -95 -130 -466
-805 -98 -179 -106 -199 -106 -246 2 -91 78 -196 183 -249 14 -8 199 -69 411
-136 483 -153 546 -161 671 -81 81 51 80 48 144 654 31 301 53 552 50 569 -9
38 -67 104 -114 128 -20 9 -61 26 -92 35 l-56 18 18 59 c11 33 19 74 19 90 l0
31 60 -6 c67 -6 105 -25 122 -62 9 -20 8 -29 -7 -45 -10 -11 -30 -20 -45 -20
-61 0 -67 -74 -7 -85 87 -17 170 70 153 160 -15 80 -99 135 -216 143 -68 4
-79 8 -112 38 -42 38 -94 51 -138 35 -28 -9 -36 -7 -78 23 -95 67 -176 82
-247 46z m411 -185 c19 -30 15 -100 -10 -158 l-15 -36 -63 21 c-35 11 -67 24
-72 29 -14 13 13 93 46 133 38 46 88 51 114 11z m-108 -244 c143 -44 269 -90
287 -103 54 -38 77 -75 81 -126 l4 -47 -13 50 c-7 28 -16 56 -20 62 -17 27
-377 155 -571 203 -137 33 -152 32 -199 -18 -15 -16 -130 -211 -255 -433
l-226 -404 -1 -67 c0 -58 4 -72 30 -110 60 -84 110 -108 475 -223 394 -125
411 -129 497 -114 72 13 117 39 150 88 13 20 23 27 23 18 0 -27 -52 -78 -99
-100 -34 -14 -67 -20 -126 -20 -74 0 -107 9 -420 108 -186 59 -361 118 -388
131 -106 54 -174 147 -165 227 7 58 470 900 512 930 37 26 81 37 131 32 22 -2
154 -40 293 -84z m-90 -67 c127 -26 255 -99 355 -202 l38 -39 -16 -144 c-23
-208 -9 -186 -117 -191 -139 -6 -221 -51 -203 -109 4 -11 46 -51 95 -90 49
-38 105 -92 125 -119 36 -49 36 -50 29 -119 -12 -128 -69 -175 -209 -176 -74
0 -103 7 -390 99 -328 105 -373 126 -425 197 -47 65 -48 106 -6 186 35 66 38
69 94 86 31 10 111 23 177 29 68 6 130 16 143 24 32 21 29 71 -8 123 -26 35
-118 112 -168 140 -11 6 3 38 65 149 71 130 81 143 113 151 88 24 207 26 308
5z m-391 -461 c24 -23 43 -47 43 -53 0 -6 -26 -10 -62 -10 -61 0 -142 -10
-202 -26 l-29 -7 47 89 c27 49 53 95 58 101 12 15 81 -29 145 -94z m820 -25
c-3 -8 -6 -5 -6 6 -1 11 2 17 5 13 3 -3 4 -12 1 -19z m-10 -85 c-3 -10 -5 -4
-5 12 0 17 2 24 5 18 2 -7 2 -21 0 -30z m-82 -160 c-4 -54 -10 -102 -12 -106
-3 -5 -30 16 -61 45 -32 29 -75 68 -97 86 -29 23 -36 35 -28 43 16 16 69 27
141 28 l64 1 -7 -97z m72 55 c-3 -8 -6 -5 -6 6 -1 11 2 17 5 13 3 -3 4 -12 1
-19z"/>
<path d="M4830 2040 c-76 -16 -121 -40 -118 -64 3 -24 34 -26 108 -6 67 18
214 8 273 -18 69 -31 120 -74 148 -127 25 -46 47 -56 68 -31 10 11 8 23 -8 53
-62 116 -187 186 -353 197 -40 3 -93 1 -118 -4z"/>
<path d="M6401 2409 c-32 -20 -35 -20 -100 -3 -131 33 -230 3 -271 -82 -38
-77 -7 -150 75 -178 45 -16 70 -8 80 24 8 27 0 38 -41 55 -31 13 -35 18 -32
47 3 29 8 35 44 47 35 12 51 13 97 2 l56 -12 -6 -87 c-3 -48 -7 -88 -8 -90 -2
-2 -44 -7 -94 -12 -99 -9 -166 -38 -196 -84 -18 -28 -225 -1052 -225 -1114 0
-24 7 -59 16 -78 23 -48 96 -109 163 -136 55 -23 61 -23 506 -23 396 0 457 2
505 17 73 23 146 72 177 120 45 68 43 95 -52 548 -47 228 -97 467 -110 529
-13 63 -32 126 -42 140 -34 47 -122 83 -218 88 l-85 6 0 56 c0 31 -4 70 -9 87
-9 30 -7 32 29 43 59 18 114 14 144 -10 37 -29 31 -59 -16 -82 -28 -12 -38
-23 -38 -40 0 -78 126 -50 158 35 27 70 -12 154 -85 184 -43 18 -127 18 -192
-2 -50 -14 -54 -14 -95 5 -54 26 -92 26 -135 0z m123 -112 c15 -20 21 -47 24
-97 l4 -70 -81 0 -81 0 0 54 c0 94 32 149 84 144 18 -2 37 -14 50 -31z m284
-262 c38 -17 78 -49 92 -76 18 -32 211 -1000 205 -1022 -13 -42 -50 -88 -95
-117 -87 -56 -125 -60 -552 -60 -361 0 -391 1 -440 20 -62 23 -122 70 -144
112 -15 29 -22 103 -10 115 3 4 6 -10 6 -31 0 -71 47 -127 145 -173 l60 -28
395 0 c456 0 466 1 550 84 82 79 83 58 -25 585 -51 253 -98 472 -103 486 -5
14 -21 35 -35 48 -22 21 -40 24 -186 35 -174 12 -522 -2 -561 -23 -40 -21 -61
-91 -132 -445 -39 -195 -73 -353 -75 -351 -3 3 68 382 123 655 23 114 53 157
129 185 60 22 600 22 653 1z m-255 -81 c11 -4 14 -16 10 -43 -20 -150 121
-532 242 -657 55 -56 107 -85 156 -86 26 -1 29 -5 40 -57 21 -92 17 -133 -12
-172 -41 -54 -119 -91 -202 -97 -70 -5 -70 -5 -64 19 19 67 19 97 -1 141 -38
87 -126 130 -267 131 -69 0 -103 -5 -147 -22 -61 -23 -123 -82 -134 -126 -7
-28 -1 -102 10 -127 10 -23 -20 -24 -91 -3 -66 20 -126 64 -148 111 -16 34
-16 45 -5 108 15 84 19 98 30 91 4 -3 31 2 59 11 161 47 352 417 355 684 1 47
6 88 11 92 12 9 137 11 158 2z m-223 -78 c0 -222 -147 -551 -284 -635 -42 -27
-79 -28 -72 -3 2 9 30 145 62 302 31 157 61 291 67 298 18 23 185 100 220 102
4 0 7 -29 7 -64z m436 9 l91 -42 60 -309 c33 -170 59 -311 58 -312 -2 -2 -18
-1 -36 3 -125 28 -304 378 -317 618 l-5 98 29 -7 c16 -3 70 -25 120 -49z
m-869 -737 c-3 -7 -5 -2 -5 12 0 14 2 19 5 13 2 -7 2 -19 0 -25z m-10 -50 c-3
-8 -6 -5 -6 6 -1 11 2 17 5 13 3 -3 4 -12 1 -19z m680 -33 c97 -29 139 -115
98 -195 l-16 -30 -198 0 -199 0 -16 40 c-20 50 -20 73 -2 109 40 77 205 114
333 76z"/>
</g>
</svg>
